<svg xmlns="http://www.w3.org/2000/svg" width="21" height="21" viewBox="0 0 21 21"><path class="a" d="M21,12.017a1.435,1.435,0,0,1-2.613.82H7.945a1.436,1.436,0,1,1,0-1.641H18.386a1.435,1.435,0,0,1,2.613.82Zm-1.436,6.111a1.434,1.434,0,0,0-1.178.615H17.349V14.93h-7.2a1.435,1.435,0,1,0-.057,1.641h5.619v3.814h2.678a1.435,1.435,0,1,0,1.178-2.256Zm-.82-12.4V7.547H12.525a1.435,1.435,0,1,0-.057,1.641h7.916V5.73a1.436,1.436,0,1,0-1.641,0ZM8.408,19.136c-1.427-.763-6.768-3.967-6.768-9.109V5.087a.8.8,0,0,1,.625-.806A13.97,13.97,0,0,0,7.4,1.965a1.727,1.727,0,0,1,2.015,0A13.973,13.973,0,0,0,14.55,4.281a.8.8,0,0,1,.625.806v.778h1.641V5.087a2.441,2.441,0,0,0-1.963-2.419A12.313,12.313,0,0,1,10.36.624a3.367,3.367,0,0,0-3.9,0A12.311,12.311,0,0,1,1.963,2.669,2.441,2.441,0,0,0,0,5.087v4.94a9.415,9.415,0,0,0,1.294,4.715,13.575,13.575,0,0,0,2.774,3.348A18.144,18.144,0,0,0,8.062,20.8l.346.161.346-.161a17.557,17.557,0,0,0,3.928-2.63H10.02a15.847,15.847,0,0,1-1.612.966Zm0,0" transform="translate(0 0)"/></svg>