<svg xmlns="http://www.w3.org/2000/svg" width="20" height="20" viewBox="0 0 20 20"><defs><style>.a{fill:#727272;}</style></defs><g transform="translate(0 0)"><g transform="translate(0 0)"><path class="a" d="M10,20A10,10,0,0,1,2.929,2.929,10,10,0,0,1,17.071,17.071,9.935,9.935,0,0,1,10,20ZM10,1.172A8.828,8.828,0,0,0,3.758,16.242,8.828,8.828,0,1,0,16.242,3.758,8.77,8.77,0,0,0,10,1.172Z" transform="translate(0 0)"/></g><g transform="translate(9.414 2.345)"><path class="a" d="M241,60.036h1.172V61.6H241Z" transform="translate(-241 -60.036)"/></g><g transform="translate(13.891 4.174)"><path class="a" d="M0,0H1.564V1.172H0Z" transform="translate(0 1.106) rotate(-45)"/></g><g transform="translate(16.091 9.414)"><path class="a" d="M411.932,241H413.5v1.172h-1.564Z" transform="translate(-411.932 -241)"/></g><g transform="translate(13.89 13.893)"><path class="a" d="M0,0H1.172V1.564H0Z" transform="translate(0 0.829) rotate(-45)"/></g><g transform="translate(9.414 16.091)"><path class="a" d="M241,411.932h1.172V413.5H241Z" transform="translate(-241 -411.932)"/></g><g transform="translate(4.171 13.892)"><path class="a" d="M0,0H1.564V1.172H0Z" transform="translate(0 1.106) rotate(-45)"/></g><g transform="translate(2.345 9.414)"><path class="a" d="M60.036,241H61.6v1.172H60.036Z" transform="translate(-60.036 -241)"/></g><g transform="translate(4.172 4.173)"><path class="a" d="M0,0H1.172V1.564H0Z" transform="translate(0 0.829) rotate(-45)"/></g><g transform="translate(9.414 5.864)"><path class="a" d="M245.722,154.83H241v-4.722h1.172v3.55h3.55Z" transform="translate(-241 -150.108)"/></g></g></svg>