<svg
  xmlns="http://www.w3.org/2000/svg"
  id="Group_1210"
  data-name="Group 1210"
  width="23.512"
  height="21"
  viewBox="0 0 23.512 21"
>
  <path
    id="Path_1723"
    data-name="Path 1723"
    d="M315.509,305.335h4.758a.693.693,0,1,0,0-1.386h-4.758a.693.693,0,1,0,0,1.386Zm0,0"
    transform="translate(-300.359 -290.014)"
    fill="#b4b4b4"
  />
  <g id="Group_1209" data-name="Group 1209">
    <path
      id="Path_1722"
      data-name="Path 1722"
      d="M22.819,2.766H13.361l-.349-1.712A.693.693,0,0,0,12.333.5H5.548a.693.693,0,0,0-.679.554L4.52,2.766H3.785a.693.693,0,0,0-.693.694l.014,8.408a5,5,0,1,0,6.4,6.814H22.819a.693.693,0,0,0,.693-.693V3.459A.693.693,0,0,0,22.819,2.766ZM6.114,1.886h5.653l.179.88H5.934ZM5,20.114A3.617,3.617,0,1,1,8.619,16.5,3.621,3.621,0,0,1,5,20.114ZM22.126,17.3H9.941a5,5,0,0,0-5.449-5.776L4.479,4.152H22.126Zm0,0"
      transform="translate(0 -0.5)"
      fill="#b4b4b4"
    />
    <path
      id="Path_1724"
      data-name="Path 1724"
      d="M58.551,295.968H57.424v-1.127a.693.693,0,0,0-1.386,0v1.127H54.912a.693.693,0,0,0,0,1.386h1.127v1.127a.693.693,0,0,0,1.386,0v-1.127h1.127a.693.693,0,0,0,0-1.386Zm0,0"
      transform="translate(-51.729 -280.664)"
      fill="#b4b4b4"
    />
  </g>
</svg>