<svg
    xmlns="http://www.w3.org/2000/svg"
    width="21.393"
    height="21.393"
    viewBox="0 0 21.393 21.393"
>
    <path
    class="a"
    d="M21.339,18.331a.836.836,0,0,0-1.636.341.873.873,0,0,1-.177.732.849.849,0,0,1-.668.318H2.536a.849.849,0,0,1-.668-.318.873.873,0,0,1-.177-.732,9.233,9.233,0,0,1,8.784-7.311q.11,0,.222,0t.222,0a9.193,9.193,0,0,1,7.424,4.08.836.836,0,1,0,1.388-.931A10.87,10.87,0,0,0,14.1,10.231a5.682,5.682,0,1,0-6.8,0,10.869,10.869,0,0,0-7.242,8.1,2.539,2.539,0,0,0,2.482,3.062H18.857a2.539,2.539,0,0,0,2.482-3.062ZM6.686,5.682A4.011,4.011,0,1,1,10.9,9.688l-.2,0-.2,0A4.016,4.016,0,0,1,6.686,5.682Z"
    transform="translate(0 0)"
    />
</svg>