<svg
    xmlns="http://www.w3.org/2000/svg"
    width="19.285"
    height="21.519"
    viewBox="0 0 19.285 21.519"
>
    <g transform="translate(-26.57)">
    <g transform="translate(26.57)">
        <g transform="translate(0)">
        <path
            class="a"
            d="M116.8,200.841a.841.841,0,0,0-.841-.841H107.3a.841.841,0,1,0,0,1.681h8.658A.841.841,0,0,0,116.8,200.841Z"
            transform="translate(-103.101 -191.594)"
        />
        <path
            class="a"
            d="M107.3,280a.841.841,0,1,0,0,1.681h5.258a.841.841,0,1,0,0-1.681Z"
            transform="translate(-103.101 -268.232)"
        />
        <path
            class="a"
            d="M32.743,19.837H29.932a1.683,1.683,0,0,1-1.681-1.681V3.362a1.683,1.683,0,0,1,1.681-1.681H40.267a1.683,1.683,0,0,1,1.681,1.681V8.532a.841.841,0,0,0,1.681,0V3.362A3.366,3.366,0,0,0,40.267,0H29.932A3.366,3.366,0,0,0,26.57,3.362V18.156a3.366,3.366,0,0,0,3.362,3.362h2.811a.841.841,0,1,0,0-1.681Z"
            transform="translate(-26.57)"
        />
        <path
            class="a"
            d="M252.889,272.762a2.524,2.524,0,0,0-3.566,0l-4.615,4.6a.841.841,0,0,0-.211.351l-1.005,3.309a.84.84,0,0,0,1.029,1.054l3.393-.94a.839.839,0,0,0,.369-.215l4.605-4.6A2.525,2.525,0,0,0,252.889,272.762Zm-5.636,6.817-1.707.473.5-1.645,3.114-3.107,1.189,1.189Zm4.448-4.44-.163.163-1.189-1.189.162-.162a.841.841,0,0,1,1.189,1.188Z"
            transform="translate(-234.342 -260.591)"
        />
        <path
            class="a"
            d="M115.957,120H107.3a.841.841,0,1,0,0,1.681h8.658a.841.841,0,1,0,0-1.681Z"
            transform="translate(-103.101 -114.957)"
        />
        </g>
    </g>
    </g>
</svg>