<svg xmlns="http://www.w3.org/2000/svg" width="28.946" height="28.975" viewBox="0 0 28.946 28.975"><defs><style>.a,.b{fill:none;}.a{stroke:#ab8fe4;stroke-width:1.5px;}.c,.d{stroke:none;}.d{fill:#ab8fe4;}</style></defs><g transform="translate(0.75 2)"><path class="a" d="M103.772,12.5a13.606,13.606,0,0,1,2.45-.093A8.373,8.373,0,0,1,108.06.01,7.013,7.013,0,0,0,103.772,12.5Z" transform="translate(-97.674 -0.01)"/><g class="b" transform="translate(-187.868 0)"><path class="c" d="M202.57,12.4H204.4a2.735,2.735,0,0,1,2.5,1.63,7.014,7.014,0,1,0-4.33-1.63Zm3.808-8.974V2.846a.68.68,0,1,1,1.359,0v.576a2.441,2.441,0,0,1,.956.172h0a2.527,2.527,0,0,1,.913.623.68.68,0,1,1-.992.93,1.131,1.131,0,0,0-.805-.365h-1.562a.775.775,0,0,0,0,1.551h1.619a2.138,2.138,0,1,1-.13,4.272v.576a.68.68,0,1,1-1.359,0v-.576a2.541,2.541,0,0,1-1.615-.454.68.68,0,0,1,.775-1.118,1.145,1.145,0,0,0,.627.212h1.7a.775.775,0,0,0,0-1.551h-1.619a2.138,2.138,0,1,1,.13-4.272Z"/><path class="d" d="M 207.0816802978516 14.02870464324951 C 210.8879547119141 14.02890014648438 214.0638580322266 10.9057035446167 214.0638580322266 7.014065265655518 C 214.0639190673828 3.147605180740356 210.922607421875 5.266265816317173e-06 207.0577697753906 5.266265816317173e-06 C 200.4980163574219 5.266265816317173e-06 197.5763092041016 8.215865135192871 202.5700225830078 12.39673519134521 L 204.3975372314453 12.39673519134521 C 205.5284271240234 12.39673519134521 206.4811096191406 13.07976531982422 206.8996124267578 14.02632522583008 C 206.9603424072266 14.02791213989258 207.0212707519531 14.02870178222656 207.0816802978516 14.02870464324951 M 206.3782196044922 10.60563564300537 C 206.3398742675781 10.60563564300537 206.2937774658203 10.60651206970215 206.2408294677734 10.60651302337646 C 205.9276428222656 10.60651397705078 205.3744812011719 10.57582092285156 204.7631683349609 10.15120506286621 C 204.4546356201172 9.936695098876953 204.3780822753906 9.513065338134766 204.5923919677734 9.204195022583008 C 204.7242584228516 9.01370906829834 204.9359283447266 8.911534309387207 205.1510467529297 8.911534309387207 C 205.2847442626953 8.911534309387207 205.4197692871094 8.950984001159668 205.537841796875 9.033225059509277 C 205.7152557373047 9.157535552978516 205.9421997070313 9.242975234985352 206.1648406982422 9.245015144348145 L 207.8677825927734 9.245015144348145 C 208.2973022460938 9.245015144348145 208.6419982910156 8.896995544433594 208.6419982910156 8.469924926757813 C 208.6419982910156 8.042224884033203 208.2945404052734 7.694335460662842 207.8673553466797 7.694335460662842 C 207.2685089111328 7.694335460662842 206.8470458984375 7.694335460662842 206.2482147216797 7.694335460662842 C 205.0721588134766 7.694335460662842 204.1148986816406 6.73645544052124 204.1148986816406 5.558625221252441 C 204.1148681640625 4.465415477752686 204.9387359619141 3.422455310821533 206.3782196044922 3.422455310821533 L 206.3782196044922 2.845975160598755 C 206.3782196044922 2.470415353775024 206.6826477050781 2.165665149688721 207.0577697753906 2.165665149688721 C 207.4333038330078 2.165665149688721 207.7372894287109 2.470415353775024 207.7372894287109 2.845975160598755 L 207.7372894287109 3.422405242919922 C 208.0642852783203 3.422405242919922 208.3541564941406 3.460415363311768 208.6931915283203 3.59474515914917 L 208.6931915283203 3.595195293426514 C 209.0347747802734 3.730335235595703 209.3482971191406 3.942165374755859 209.6064910888672 4.217925071716309 C 209.8633728027344 4.491875171661377 209.8493347167969 4.922755241394043 209.5752716064453 5.179435253143311 C 209.4412536621094 5.304581642150879 209.2750854492188 5.363400459289551 209.1113739013672 5.363404750823975 C 208.9260101318359 5.363409519195557 208.7437896728516 5.288018226623535 208.6148223876953 5.148135185241699 C 208.4000854492188 4.919085502624512 208.1069946289063 4.786205291748047 207.8097839355469 4.783035278320313 L 206.2482147216797 4.783035278320313 C 205.8218536376953 4.783035278320313 205.4739685058594 5.12806510925293 205.4739685058594 5.558625221252441 C 205.4739685058594 5.985875129699707 205.8214416503906 6.333705425262451 206.2482147216797 6.333705425262451 L 207.8673553466797 6.333705425262451 C 209.0438079833984 6.333705425262451 210.0010986328125 7.292095184326172 210.0010986328125 8.469924926757813 C 210.0010986328125 9.518555641174316 209.2315521240234 10.60563564300537 207.7372894287109 10.60563564300537 L 207.7372894287109 11.18207550048828 C 207.7372894287109 11.55804538726807 207.4333038330078 11.86238479614258 207.0577697753906 11.86238479614258 C 206.6826477050781 11.86238479614258 206.3782196044922 11.55804538726807 206.3782196044922 11.18207550048828 L 206.3782196044922 10.60563564300537 M 207.08203125 16.02870559692383 L 207.08203125 14.02870559692383 L 207.0819854736328 16.02870559692383 L 207.0818786621094 16.02870559692383 L 207.0815887451172 16.02870559692383 C 207.00390625 16.02870559692383 206.9254455566406 16.02768516540527 206.8472595214844 16.025634765625 L 205.5821685791016 15.99251556396484 L 205.0704193115234 14.83506488800049 C 204.9810180664063 14.63285541534424 204.7511596679688 14.39673519134521 204.3975372314453 14.39673519134521 L 202.5700225830078 14.39673519134521 L 201.8433227539063 14.39673519134521 L 201.2861328125 13.93023490905762 C 199.7710418701172 12.66176509857178 198.7361602783203 11.00752544403076 198.2933807373047 9.146365165710449 C 197.8841705322266 7.426345348358154 197.9936981201172 5.620445251464844 198.6101379394531 3.923875331878662 C 199.2243194580078 2.23351526260376 200.2938995361328 0.7856852412223816 201.7032012939453 -0.26308473944664 C 203.2301177978516 -1.399384737014771 205.0817108154297 -1.99999475479126 207.0577697753906 -1.99999475479126 C 209.46142578125 -1.99999475479126 211.7228088378906 -1.061044692993164 213.4253540039063 0.6438952684402466 C 215.1268615722656 2.347785234451294 216.0638885498047 4.610105037689209 216.0638580322266 7.014105319976807 C 216.0638580322266 11.98475551605225 212.0346221923828 16.02870559692383 207.08203125 16.02870559692383 Z"/></g><path class="a" d="M25.724,306.851a1.881,1.881,0,0,0-2.425,0l-2.517,2.22a1.577,1.577,0,0,1-1.039.38H13.191a1.527,1.527,0,1,1,0-3.03h2a1.506,1.506,0,0,0,1.593-1.345,1.472,1.472,0,0,0-1.56-1.409H9.486a6.784,6.784,0,0,0-4.934,2.044l-.93,1.041a.271.271,0,0,1-.2.086H.514a.487.487,0,0,0-.514.453v5.269a.487.487,0,0,0,.514.454H20.38a2.018,2.018,0,0,0,1.331-.486l4.012-3.538A1.39,1.39,0,0,0,25.724,306.851Z" transform="translate(0 -286.788)"/></g></svg>