 <svg
              xmlns="http://www.w3.org/2000/svg"
              width="24.677"
              height="21.006"
              viewBox="0 0 24.677 21.006"
            >
              <g transform="translate(0.354 -37.377)">
                <g transform="translate(0 37.627)">
                  <g transform="translate(0 0)">
                    <path
                      class="a"
                      d="M130.85,375.691l-1.138,1.007a10.457,10.457,0,0,0,1.177,1.132l.962-1.176A8.775,8.775,0,0,1,130.85,375.691Z"
                      transform="translate(-123.563 -359.664)"
                    />
                    <path
                      class="a"
                      d="M94.162,326.187l-1.394.6a10.106,10.106,0,0,0,.765,1.447l1.28-.813A8.7,8.7,0,0,1,94.162,326.187Z"
                      transform="translate(-88.37 -312.507)"
                    />
                    <path
                      class="a"
                      d="M18.944,39.008A10.228,10.228,0,0,0,3.67,46.515l-2.6-2.6L0,44.99l4.329,4.329L8.658,44.99,7.585,43.917,5.239,46.26a8.714,8.714,0,1,1,4.195,9.154l-.762,1.311A10.24,10.24,0,0,0,18.944,39.008Z"
                      transform="translate(0 -37.627)"
                    />
                    <path
                      class="a"
                      d="M267.312,109.627v8.344l3.337,2.5.91-1.214-2.731-2.048v-7.585Z"
                      transform="translate(-254.64 -106.214)"
                    />
                  </g>
                </g>
              </g>
            </svg>