<svg xmlns="http://www.w3.org/2000/svg" width="16.263" height="20.514" viewBox="0 0 16.263 20.514"><g transform="translate(0)"><path class="a" d="M113.542,200.8c0-.443-.258-.8-.576-.8h-5.931c-.318,0-.576.359-.576.8s.258.8.576.8h5.931C113.284,201.6,113.542,201.244,113.542,200.8Z" transform="translate(-103.258 -191.987)"/><path class="a" d="M32.455,18.912h-2.68a1.6,1.6,0,0,1-1.6-1.6V3.205a1.6,1.6,0,0,1,1.6-1.6h9.852a1.6,1.6,0,0,1,1.6,1.6V8.134a.8.8,0,1,0,1.6,0V3.205A3.209,3.209,0,0,0,39.627,0H29.775A3.209,3.209,0,0,0,26.57,3.205v14.1a3.209,3.209,0,0,0,3.205,3.205h2.68a.8.8,0,0,0,0-1.6Z" transform="translate(-26.57)"/><path class="a" d="M115.514,120H107.26a.8.8,0,0,0,0,1.6h8.254a.8.8,0,0,0,0-1.6Z" transform="translate(-103.258 -115.192)"/></g></svg>