<svg xmlns="http://www.w3.org/2000/svg" width="29.07" height="40.012" viewBox="0 0 29.07 40.012" fill="#fff"><g transform="translate(-70.008)"><g transform="translate(70.008)"><g transform="translate(0)"><path class="a" d="M97.773,4.014H90.626V1.3a1.3,1.3,0,0,0-1.3-1.3H79.765a1.3,1.3,0,0,0-1.3,1.3V4.014H71.313a1.3,1.3,0,0,0-1.3,1.3V9.332a1.3,1.3,0,0,0,1.3,1.3h.4L72.9,38.762a1.3,1.3,0,0,0,1.3,1.249H94.881a1.3,1.3,0,0,0,1.3-1.25l1.192-28.126h.4a1.3,1.3,0,0,0,1.3-1.3V5.318A1.3,1.3,0,0,0,97.773,4.014Zm-16.7-1.4h6.947v1.4H81.069ZM93.63,37.4H75.456L74.321,10.636H94.765ZM96.468,8.027H72.618v-1.4H96.468Z" transform="translate(-70.008)"/></g></g><g transform="translate(77.989 14.637)"><g transform="translate(0)"><path class="a" d="M173.444,187.3a1.3,1.3,0,0,0-1.3,1.3v16.154a1.3,1.3,0,0,0,2.61,0V188.609A1.3,1.3,0,0,0,173.444,187.3Z" transform="translate(-172.139 -187.304)"/></g></g><g transform="translate(83.238 14.637)"><path class="a" d="M240.607,187.3a1.3,1.3,0,0,0-1.3,1.3v16.154a1.3,1.3,0,0,0,2.609,0V188.609A1.3,1.3,0,0,0,240.607,187.3Z" transform="translate(-239.302 -187.304)"/></g><g transform="translate(88.487 14.637)"><g transform="translate(0)"><path class="a" d="M307.77,187.3a1.3,1.3,0,0,0-1.3,1.3v16.154a1.3,1.3,0,0,0,2.609,0V188.609A1.3,1.3,0,0,0,307.77,187.3Z" transform="translate(-306.465 -187.304)"/></g></g></g></svg>