 <svg
              xmlns="http://www.w3.org/2000/svg"
              width="20.508"
              height="20.508"
              viewBox="0 0 20.508 20.508"
            >
              <path
                class="a"
                d="M19.775,5.127H16.113V.732A.732.732,0,0,0,15.381,0H.732A.732.732,0,0,0,0,.732V17.578a2.93,2.93,0,0,0,2.93,2.93H17.578a2.93,2.93,0,0,0,2.93-2.93V5.859A.732.732,0,0,0,19.775,5.127ZM2.93,19.043a1.465,1.465,0,0,1-1.465-1.465V1.465H14.648V17.578a2.9,2.9,0,0,0,.053.526c.007.042.015.083.025.124a2.938,2.938,0,0,0,.151.486c0,.007.007.014.01.021a2.89,2.89,0,0,0,.154.309Zm16.113-1.465a1.465,1.465,0,0,1-2.93,0V6.592h2.93V17.578Z"
              />
              <g transform="translate(5.127 3.662)">
                <path
                  class="a"
                  d="M124.593,85.333H120.2a.732.732,0,0,0,0,1.465h4.395a.732.732,0,0,0,0-1.465Z"
                  transform="translate(-119.466 -85.333)"
                />
              </g>
              <g transform="translate(2.93 7.324)">
                <path
                  class="a"
                  d="M77.787,170.667H69a.732.732,0,1,0,0,1.465h8.789a.732.732,0,0,0,0-1.465Z"
                  transform="translate(-68.266 -170.667)"
                />
              </g>
              <g transform="translate(2.93 10.254)">
                <path
                  class="a"
                  d="M77.787,238.933H69a.732.732,0,1,0,0,1.465h8.789a.732.732,0,0,0,0-1.465Z"
                  transform="translate(-68.266 -238.933)"
                />
              </g>
              <g transform="translate(2.93 13.184)">
                <path
                  class="a"
                  d="M77.787,307.2H69a.732.732,0,1,0,0,1.465h8.789a.732.732,0,0,0,0-1.465Z"
                  transform="translate(-68.266 -307.2)"
                />
              </g>
              <g transform="translate(2.93 16.113)">
                <path
                  class="a"
                  d="M77.787,375.467H69a.732.732,0,1,0,0,1.465h8.789a.732.732,0,1,0,0-1.465Z"
                  transform="translate(-68.266 -375.467)"
                />
              </g>
            </svg>