<svg
    id="add-circular-outlined-button"
    xmlns="http://www.w3.org/2000/svg"
    width="19.601"
    height="19.601"
    viewBox="0 0 19.601 19.601"
    >
    <g id="_x38__3_">
        <g id="Group_857" data-name="Group 857">
        <path
            id="Path_1605"
            data-name="Path 1605"
            d="M9.8,0a9.8,9.8,0,1,0,9.8,9.8A9.8,9.8,0,0,0,9.8,0Zm0,18.376A8.575,8.575,0,1,1,18.376,9.8,8.575,8.575,0,0,1,9.8,18.376Zm3.675-9.188H10.413V6.125a.613.613,0,0,0-1.225,0V9.188H6.125a.613.613,0,0,0,0,1.225H9.188v3.063a.613.613,0,1,0,1.225,0V10.413h3.063a.613.613,0,1,0,0-1.225Z"
            fill="#2ABED5"
        />
        </g>
    </g>
    </svg>