<svg xmlns="http://www.w3.org/2000/svg" width="19.881" height="13.783" viewBox="0 0 19.881 13.783"><defs><style>.a{fill:#2abed5;}</style></defs><g transform="translate(0 -78.521)"><g transform="translate(12.509 87.292)"><path class="a" d="M324.657,304.4a2.506,2.506,0,1,0,2.506,2.506A2.509,2.509,0,0,0,324.657,304.4Zm0,3.759a1.253,1.253,0,1,1,1.253-1.253A1.254,1.254,0,0,1,324.657,308.162Z" transform="translate(-322.151 -304.403)"/></g><g transform="translate(3.947 87.292)"><path class="a" d="M104.153,304.4a2.506,2.506,0,1,0,2.506,2.506A2.509,2.509,0,0,0,104.153,304.4Zm0,3.759a1.253,1.253,0,1,1,1.253-1.253A1.254,1.254,0,0,1,104.153,308.162Z" transform="translate(-101.647 -304.403)"/></g><g transform="translate(12.843 79.774)"><path class="a" d="M334.615,111.135a.627.627,0,0,0-.56-.345h-3.3v1.253h2.913l1.706,3.393,1.12-.563Z" transform="translate(-330.756 -110.79)"/></g><g transform="translate(8.395 89.192)"><rect class="a" width="4.74" height="1.253"/></g><g transform="translate(1.775 89.192)"><path class="a" d="M48.513,353.345H46.341a.626.626,0,0,0,0,1.253h2.172a.626.626,0,1,0,0-1.253Z" transform="translate(-45.715 -353.345)"/></g><g transform="translate(1.775 78.521)"><path class="a" d="M63.689,85.362l-1.232-1.587a.626.626,0,0,0-.495-.242H57.41V79.147a.626.626,0,0,0-.626-.626H46.341a.626.626,0,0,0,0,1.253h9.815v4.385a.626.626,0,0,0,.626.626h4.872l.912,1.175v3.231H60.834a.626.626,0,0,0,0,1.253h2.36a.626.626,0,0,0,.627-.626V85.747A.627.627,0,0,0,63.689,85.362Z" transform="translate(-45.715 -78.521)"/></g><g transform="translate(1.023 86.018)"><path class="a" d="M29.861,271.6H26.979a.626.626,0,0,0,0,1.253h2.882a.626.626,0,0,0,0-1.253Z" transform="translate(-26.353 -271.597)"/></g><g transform="translate(0 83.554)"><path class="a" d="M5.973,208.134H.626a.626.626,0,0,0,0,1.253H5.973a.626.626,0,0,0,0-1.253Z" transform="translate(0 -208.134)"/></g><g transform="translate(1.023 81.09)"><path class="a" d="M32.326,144.672H26.979a.626.626,0,0,0,0,1.253h5.346a.626.626,0,0,0,0-1.253Z" transform="translate(-26.353 -144.672)"/></g></g></svg>