<svg xmlns="http://www.w3.org/2000/svg" width="25.942" height="23" viewBox="0 0 25.942 23">
  <g id="acceptance-reject" transform="translate(-940 -109)">
    <path id="mail" d="M20.406,42.405H3.358a.607.607,0,0,1-.606-.606V40.083h-.41a.606.606,0,0,1,0-1.213H4.716a.606.606,0,0,1,0,1.213H3.964v1.109H19.8V31.036l-6.381,4.29a3.006,3.006,0,0,1-3.147-.049L3.964,31.036v4.009h.752a.606.606,0,0,1,0,1.213H2.341a.606.606,0,1,1,0-1.213h.41v-5.14q0-.008,0-.017V28.28a.607.607,0,0,1,.606-.606H20.406a.607.607,0,0,1,.606.606v1.608q0,.009,0,.017V41.8A.606.606,0,0,1,20.406,42.405ZM3.964,29.574l6.984,4.7a1.793,1.793,0,0,0,1.793.049L19.8,29.574v-.688H3.964ZM8,39.837a2.273,2.273,0,1,1,2.273-2.273A2.275,2.275,0,0,1,8,39.837ZM8,36.5a1.06,1.06,0,1,0,1.06,1.06A1.061,1.061,0,0,0,8,36.5Zm17.335,2.788H23.093a.606.606,0,0,1,0-1.213h1.637V20.618H10.38v5.2a.606.606,0,0,1-1.213,0V20.011a.607.607,0,0,1,.606-.606H25.336a.607.607,0,0,1,.606.606V38.686A.606.606,0,0,1,25.336,39.293Zm-21-1.122H.606a.606.606,0,1,1,0-1.213H4.34a.606.606,0,1,1,0,1.213Zm18.206-1.4a.607.607,0,0,1-.258-1.156.88.88,0,0,0,0-1.4.606.606,0,1,1,.515-1.1,2.07,2.07,0,0,1,0,3.6A.6.6,0,0,1,22.546,36.77Z" transform="translate(940 89.595)" fill="#b4b4b4"/>
    <path id="Icon_ionic-ios-close" data-name="Icon ionic-ios-close" d="M14.106,13.569l1.629-1.629a.382.382,0,0,0-.54-.54l-1.629,1.629L11.937,11.4a.382.382,0,1,0-.54.54l1.629,1.629L11.4,15.2a.382.382,0,0,0,.54.54l1.629-1.629L15.2,15.737a.382.382,0,0,0,.54-.54Z" transform="translate(944.086 100.212)" fill="#b4b4b4" stroke="#b4b4b4" stroke-width="0.3"/>
    <path id="Icon_ionic-ios-checkmark" data-name="Icon ionic-ios-checkmark" d="M16.331,12.738l-.484-.5a.1.1,0,0,0-.077-.033h0a.1.1,0,0,0-.077.033l-3.358,3.383L11.112,14.4a.106.106,0,0,0-.154,0l-.49.49a.11.11,0,0,0,0,.157l1.541,1.541a.488.488,0,0,0,.322.157.511.511,0,0,0,.319-.151h0l3.68-3.7A.118.118,0,0,0,16.331,12.738Z" transform="translate(942.107 112.479)" fill="#b4b4b4" stroke="#b4b4b4" stroke-width="0.3"/>
  </g>
</svg>
