<svg xmlns="http://www.w3.org/2000/svg" width="23.692" height="23.239" viewBox="0 0 23.692 23.239">
  <g id="bonus" transform="translate(16.25 -42.8)">
    <g id="Group_1787" data-name="Group 1787" transform="translate(-16 43.05)">
      <path id="Path_1973" data-name="Path 1973" d="M240.172,187.954a.31.31,0,0,0-.34.519,1.837,1.837,0,0,0,1,.351v.325a.31.31,0,1,0,.621,0v-.35a1.5,1.5,0,0,0,1.173-1.229,1.317,1.317,0,0,0-.907-1.507c-.087-.031-.177-.063-.266-.1v-1.432a.921.921,0,0,1,.366.177.31.31,0,0,0,.419-.458,1.58,1.58,0,0,0-.784-.351v-.29a.31.31,0,1,0-.621,0v.314c-.044.01-.089.021-.134.035a1.247,1.247,0,0,0-.855.978,1.1,1.1,0,0,0,.36,1.083,2.943,2.943,0,0,0,.629.361v1.82A1.251,1.251,0,0,1,240.172,187.954Zm.412-2.42a.486.486,0,0,1-.133-.48.642.642,0,0,1,.379-.484v1.121A1.806,1.806,0,0,1,240.584,185.534Zm.926,1.115a.707.707,0,0,1,.5.819.892.892,0,0,1-.561.686v-1.527Z" transform="translate(-228.645 -174.9)" fill="#b4b4b4" stroke="#b4b4b4" stroke-width="0.5"/>
      <path id="Path_1974" data-name="Path 1974" d="M22.914,19.291a1.71,1.71,0,0,0-2.095-.639l-.913.3V18.5a1.164,1.164,0,0,0-1.169-1.156.276.276,0,0,1-.278-.275V10.915a3.564,3.564,0,0,0-1.736-3.046L14.7,6.627V5.534a4.073,4.073,0,0,0,1.49-2.224.959.959,0,0,0-.151-.866.978.978,0,0,0-.79-.394H9.772a.978.978,0,0,0-.79.394.959.959,0,0,0-.151.866,4.073,4.073,0,0,0,1.49,2.224V6.627L8.3,7.868a3.564,3.564,0,0,0-1.736,3.046V12.44a.34.34,0,0,0,.68,0V10.915A2.9,2.9,0,0,1,8.655,8.439l2.1-1.287h3.511l2.1,1.287a2.9,2.9,0,0,1,1.414,2.475v6.152a.953.953,0,0,0,.957.946.487.487,0,0,1,.489.484v.676L15.7,20.323a1.4,1.4,0,0,0,.026-.141,1.387,1.387,0,0,0-.28-1.041,1.418,1.418,0,0,0-.932-.539s-5.61-1.1-5.865-1.079a3.415,3.415,0,0,0-1.711.791l-.172.123a2.41,2.41,0,0,1-.974.416V18.5a.487.487,0,0,1,.489-.484.953.953,0,0,0,.957-.946V13.991a.34.34,0,0,0-.68,0v3.076a.276.276,0,0,1-.278.275A1.164,1.164,0,0,0,5.114,18.5v.385a5.353,5.353,0,0,1-1.173-.249v-.261A1.033,1.033,0,0,0,2.9,17.347H1.038A1.033,1.033,0,0,0,0,18.373v5.391a1.033,1.033,0,0,0,1.038,1.026H2.9a1.033,1.033,0,0,0,1.038-1.026v-.427l2.421-.14h.009a3.7,3.7,0,0,1,1.564.208l2.622.955a4.458,4.458,0,0,0,1.544.272,9.192,9.192,0,0,0,3.039-.7c.222-.078.452-.16.679-.235.9-.3,1.809-.57,2.665-.822a.335.335,0,0,0,.229-.418.341.341,0,0,0-.423-.226c-.862.254-1.78.526-2.689.829-.232.077-.465.16-.69.239-1.383.488-2.69.949-4.12.428L8.17,22.774a4.386,4.386,0,0,0-1.853-.248l-2.376.137V19.337a3.516,3.516,0,0,0,3.22-.352l.178-.126a2.926,2.926,0,0,1,1.355-.665c.215-.014,1.461.239,1.931.335.137.028,3.769.735,3.769.735l.021,0a.741.741,0,0,1,.493.282.725.725,0,0,1,.146.544.743.743,0,0,1-.836.632h-.009l-3-.315a.336.336,0,1,0-.072.668l3,.314a1.429,1.429,0,0,0,.592-.048c.019,0,6.32-2.058,6.32-2.058l.028-.011a1.028,1.028,0,0,1,1.269.38,1,1,0,0,1,.127.82,1.017,1.017,0,0,1-.517.63c-.624.213-1.3.426-2.181.69a.335.335,0,0,0-.227.419.34.34,0,0,0,.325.239.343.343,0,0,0,.1-.014c.9-.27,1.589-.487,2.228-.705l.039-.016a1.692,1.692,0,0,0,.889-1.063A1.67,1.67,0,0,0,22.914,19.291Zm-8.9-12.81H11v-.8h3.017Zm.248-1.47H10.753a2.27,2.27,0,0,1-.432-.369,3.907,3.907,0,0,1-.84-1.528.3.3,0,0,1,.047-.27.3.3,0,0,1,.244-.122h5.475a.3.3,0,0,1,.291.392,3.908,3.908,0,0,1-.84,1.528A2.274,2.274,0,0,1,14.266,5.011Zm-11,18.752a.356.356,0,0,1-.358.354H1.038a.356.356,0,0,1-.358-.354V18.373a.356.356,0,0,1,.358-.354H2.9a.356.356,0,0,1,.358.354Z" transform="translate(0 -2.05)" fill="#b4b4b4" stroke="#b4b4b4" stroke-width="0.5"/>
    </g>
  </g>
</svg>
