<svg id="contract-details" xmlns="http://www.w3.org/2000/svg" width="22.994" height="22.994" viewBox="0 0 22.994 22.994">
  <g id="Group_2340" data-name="Group 2340" transform="translate(4.042 4.042)">
    <g id="Group_2339" data-name="Group 2339">
      <path id="Path_2130" data-name="Path 2130" d="M93.368,90H90.674a.674.674,0,1,0,0,1.347h2.695a.674.674,0,1,0,0-1.347Z" transform="translate(-90 -90)" fill="#623cea"/>
    </g>
  </g>
  <g id="Group_2342" data-name="Group 2342" transform="translate(4.042 8.084)">
    <g id="Group_2341" data-name="Group 2341">
      <path id="Path_2131" data-name="Path 2131" d="M93.368,180H90.674a.674.674,0,1,0,0,1.347h2.695a.674.674,0,0,0,0-1.347Z" transform="translate(-90 -180)" fill="#623cea"/>
    </g>
  </g>
  <g id="Group_2344" data-name="Group 2344" transform="translate(4.042 12.216)">
    <g id="Group_2343" data-name="Group 2343">
      <path id="Path_2132" data-name="Path 2132" d="M94.805,272H90.674a.674.674,0,1,0,0,1.347h4.132a.674.674,0,1,0,0-1.347Z" transform="translate(-90 -272)" fill="#623cea"/>
    </g>
  </g>
  <g id="Group_2346" data-name="Group 2346" transform="translate(4.042 16.258)">
    <g id="Group_2345" data-name="Group 2345">
      <path id="Path_2133" data-name="Path 2133" d="M102.889,362H90.674a.674.674,0,1,0,0,1.347h12.216a.674.674,0,1,0,0-1.347Z" transform="translate(-90 -362)" fill="#623cea"/>
    </g>
  </g>
  <g id="Group_2348" data-name="Group 2348">
    <g id="Group_2347" data-name="Group 2347">
      <path id="Path_2134" data-name="Path 2134" d="M19.626,0H3.368A2.023,2.023,0,0,0,1.347,2.021V18.952H.674A.674.674,0,0,0,0,19.626V20.3a2.7,2.7,0,0,0,2.695,2.695H17.6A2.7,2.7,0,0,0,20.3,20.3V5.389H22.32a.674.674,0,0,0,.674-.674V3.368A3.372,3.372,0,0,0,19.626,0ZM2.695,21.647A1.349,1.349,0,0,1,1.347,20.3H14.91a2.679,2.679,0,0,0,.362,1.347ZM18.952,4.716V20.3a1.347,1.347,0,0,1-2.695,0v-.674a.674.674,0,0,0-.674-.674H2.695V2.021a.674.674,0,0,1,.674-.674H18.952Zm2.695-.674H20.3V1.463a2.025,2.025,0,0,1,1.347,1.906Z" fill="#623cea"/>
    </g>
  </g>
  <g id="Group_2350" data-name="Group 2350" transform="translate(9.521 2.695)">
    <g id="Group_2349" data-name="Group 2349">
      <path id="Path_2135" data-name="Path 2135" d="M216.042,60a4.04,4.04,0,0,0-2.695,7.052v4.49a.674.674,0,0,0,1.047.561l1.647-1.1,1.647,1.1a.674.674,0,0,0,1.047-.561v-4.49A4.04,4.04,0,0,0,216.042,60Zm1.347,10.283-.974-.649a.674.674,0,0,0-.747,0l-.974.649V67.853a4.041,4.041,0,0,0,2.695,0Zm-1.347-3.547a2.695,2.695,0,1,1,2.695-2.695A2.7,2.7,0,0,1,216.042,66.737Z" transform="translate(-212 -60)" fill="#623cea"/>
    </g>
  </g>
</svg>
