<svg xmlns="http://www.w3.org/2000/svg" width="22.411" height="22.411" viewBox="0 0 22.411 22.411">
  <g id="currency" transform="translate(0 0)">
    <path id="Path_2250" data-name="Path 2250" d="M152.81,248.758a.657.657,0,0,1-.657-.657.657.657,0,0,0-1.313,0,1.973,1.973,0,0,0,1.32,1.859v.575a.657.657,0,0,0,1.313,0v-.58a1.97,1.97,0,0,0-.664-3.824.657.657,0,1,1,.657-.657.657.657,0,0,0,1.313,0,1.973,1.973,0,0,0-1.306-1.854v-.964a.657.657,0,1,0-1.313,0v.959a1.97,1.97,0,0,0,.65,3.829.657.657,0,0,1,0,1.313Zm0,0" transform="translate(-144.238 -231.408)" fill="#623cea"/>
    <path id="Path_2251" data-name="Path 2251" d="M2.676,21.339a12.544,12.544,0,0,0,5.9,1.072,14.5,14.5,0,0,0,5.06-.7,1.966,1.966,0,0,0,1.505.7h5.3a1.968,1.968,0,0,0,1.466-3.283,1.965,1.965,0,0,0,0-2.626,1.965,1.965,0,0,0,0-2.626,1.968,1.968,0,0,0-1.466-3.283h-5.3c-.064,0-.127,0-.19.009a8.991,8.991,0,0,0-2.282-1.981,1.968,1.968,0,0,0-.625-3.091l1.095-3.356a.657.657,0,0,0-.624-.86H10.436a1.97,1.97,0,0,0-3.714,0H4.639a.657.657,0,0,0-.624.86L5.11,5.53a1.968,1.968,0,0,0-.624,3.092A9.365,9.365,0,0,0,0,16.5a5.061,5.061,0,0,0,2.676,4.837ZM21.1,15.189a.657.657,0,0,1-.657.657h-5.3a.657.657,0,0,1,0-1.313h5.3A.657.657,0,0,1,21.1,15.189Zm0,2.626a.657.657,0,0,1-.657.657h-5.3a.657.657,0,0,1,0-1.313h5.3A.657.657,0,0,1,21.1,17.815ZM20.441,21.1h-5.3a.657.657,0,1,1,0-1.313h5.3a.657.657,0,0,1,0,1.313Zm.657-8.535a.657.657,0,0,1-.657.657h-5.3a.657.657,0,0,1,0-1.313h5.3A.657.657,0,0,1,21.1,12.562Zm-9.911-4.6H5.952a.656.656,0,0,1,0-1.313h5.257a.656.656,0,0,1,0,1.313h-.019ZM7.266,2.626a.657.657,0,0,0,.657-.657.657.657,0,1,1,1.313,0V3.283a.657.657,0,1,0,1.313,0V2.626h1.065L10.728,5.34h-4.3L5.544,2.626ZM6.081,9.28h4.994a7.42,7.42,0,0,1,2.656,1.913,1.965,1.965,0,0,0-.053,2.682,1.965,1.965,0,0,0,0,2.626,1.965,1.965,0,0,0,0,2.626,1.962,1.962,0,0,0-.5,1.313c0,.014,0,.027,0,.04a13.269,13.269,0,0,1-4.6.616A11.375,11.375,0,0,1,3.3,20.181,3.746,3.746,0,0,1,1.313,16.5,7.966,7.966,0,0,1,6.081,9.28Zm0,0" fill="#623cea"/>
  </g>
</svg>
