<svg xmlns="http://www.w3.org/2000/svg" width="20.573" height="20.594" viewBox="0 0 20.573 20.594">
  <g id="fees" transform="translate(0.5 1)">
    <path id="Path_306" data-name="Path 306" d="M103.056,9.1a9.906,9.906,0,0,1,1.784-.068A6.1,6.1,0,0,1,106.178.01,5.106,5.106,0,0,0,103.056,9.1Z" transform="translate(-98.617 -0.01)" fill="none" stroke="#1a73e8" stroke-width="1"/>
    <g id="Path_307" data-name="Path 307" transform="translate(-191.181 0)" fill="none">
      <path d="M201.885,9.026h1.331a1.991,1.991,0,0,1,1.822,1.186,5.107,5.107,0,1,0-3.152-1.186Zm2.773-6.534v-.42a.495.495,0,1,1,.99,0v.42a1.777,1.777,0,0,1,.7.125h0a1.84,1.84,0,0,1,.665.453.495.495,0,1,1-.722.677.823.823,0,0,0-.586-.266h-1.137a.565.565,0,0,0,0,1.129h1.179a1.557,1.557,0,1,1-.095,3.11v.42a.495.495,0,1,1-.99,0v-.42a1.85,1.85,0,0,1-1.176-.331.5.5,0,0,1,.564-.814.833.833,0,0,0,.456.154h1.24a.565.565,0,0,0,0-1.129h-1.179a1.556,1.556,0,1,1,.095-3.11Z" stroke="none"/>
      <path d="M 205.1701812744141 10.21402549743652 C 207.9414520263672 10.21415615081787 210.2537536621094 7.940228462219238 210.2537536621094 5.106803417205811 C 210.2538146972656 2.291703701019287 207.9667053222656 3.599548335841973e-06 205.1528015136719 3.599548335841973e-06 C 200.3767395019531 3.599548335841973e-06 198.24951171875 5.981813430786133 201.8853759765625 9.025814056396484 L 203.2159118652344 9.025814056396484 C 204.0393371582031 9.025814056396484 204.7329406738281 9.523123741149902 205.0376281738281 10.21229362487793 C 205.0818481445313 10.2134485244751 205.1261901855469 10.21402359008789 205.1701812744141 10.21402549743652 M 204.6580200195313 7.721753597259521 C 204.6300964355469 7.721753597259521 204.5965423583984 7.722392082214355 204.5579986572266 7.722392559051514 C 204.3299713134766 7.72239351272583 203.9272308349609 7.700046539306641 203.4821472167969 7.390893459320068 C 203.2575073242188 7.234713554382324 203.2017822265625 6.926273822784424 203.3577880859375 6.701393604278564 C 203.4538116455078 6.562704086303711 203.6079406738281 6.488311290740967 203.7645568847656 6.488311290740967 C 203.8619079589844 6.488311290740967 203.960205078125 6.517034530639648 204.0461730957031 6.576913833618164 C 204.17529296875 6.667413711547852 204.3406066894531 6.729623794555664 204.5026550292969 6.731113433837891 L 205.7425842285156 6.731113433837891 C 206.0552978515625 6.731113433837891 206.3062133789063 6.477723598480225 206.3062133789063 6.166783809661865 C 206.3062133789063 5.855383396148682 206.0532836914063 5.602093696594238 205.7422485351563 5.602093696594238 C 205.3062133789063 5.602093696594238 204.9993896484375 5.602093696594238 204.5633850097656 5.602093696594238 C 203.7071228027344 5.602093696594238 203.0101318359375 4.904683589935303 203.0101318359375 4.047123432159424 C 203.0101318359375 3.25118350982666 203.6099853515625 2.491823673248291 204.6580200195313 2.491823673248291 L 204.6580200195313 2.072093486785889 C 204.6580200195313 1.79866361618042 204.8796691894531 1.576773643493652 205.1528015136719 1.576773643493652 C 205.4262084960938 1.576773643493652 205.6475524902344 1.79866361618042 205.6475524902344 2.072093486785889 L 205.6475524902344 2.491783618927002 C 205.8856201171875 2.491783618927002 206.0966796875 2.519463539123535 206.343505859375 2.617263555526733 L 206.343505859375 2.61759352684021 C 206.5921936035156 2.715983629226685 206.8204650878906 2.870213508605957 207.0084838867188 3.070993661880493 C 207.1955261230469 3.270443677902222 207.1852722167969 3.584153652191162 206.9857177734375 3.771043539047241 C 206.8881378173828 3.862159729003906 206.7671661376953 3.904984712600708 206.6479797363281 3.904987812042236 C 206.5130310058594 3.904991388320923 206.3803558349609 3.850100517272949 206.2864379882813 3.748253583908081 C 206.1300659179688 3.581483602523804 205.916748046875 3.484743595123291 205.7002868652344 3.482433557510376 L 204.5633850097656 3.482433557510376 C 204.2529602050781 3.482433557510376 203.9996643066406 3.733643531799316 203.9996643066406 4.047123432159424 C 203.9996643066406 4.358193397521973 204.2526550292969 4.611453533172607 204.5633850097656 4.611453533172607 L 205.7422485351563 4.611453533172607 C 206.5988159179688 4.611453533172607 207.2957458496094 5.309223651885986 207.2957458496094 6.166783809661865 C 207.2957458496094 6.930273532867432 206.7354431152344 7.721753597259521 205.6475524902344 7.721753597259521 L 205.6475524902344 8.141443252563477 C 205.6475524902344 8.415184020996094 205.4262084960938 8.636763572692871 205.1528015136719 8.636763572692871 C 204.8796691894531 8.636763572692871 204.6580200195313 8.415184020996094 204.6580200195313 8.141443252563477 L 204.6580200195313 7.721753597259521 M 205.17041015625 11.21402359008789 L 205.17041015625 10.21402359008789 L 205.1703643798828 11.21402359008789 L 205.1703186035156 11.21402359008789 L 205.1701202392578 11.21402359008789 C 205.1175689697266 11.21402359008789 205.0645141601563 11.21333312988281 205.0116271972656 11.21195316314697 L 204.3789367675781 11.19549369812012 L 204.1230316162109 10.61665344238281 C 203.96435546875 10.25773334503174 203.6082763671875 10.02581405639648 203.2159118652344 10.02581405639648 L 201.8853759765625 10.02581405639648 L 201.5220336914063 10.02581405639648 L 201.2434387207031 9.792573928833008 C 200.2161712646484 8.932533264160156 199.5148773193359 7.812553405761719 199.2153778076172 6.553723812103271 C 198.9381256103516 5.388373374938965 199.0126800537109 4.163913726806641 199.4309539794922 3.012693643569946 C 199.8475799560547 1.866053581237793 200.5722198486328 0.8845936059951782 201.5265502929688 0.1744035929441452 C 202.5589752197266 -0.5938963890075684 203.8129119873047 -0.9999964237213135 205.1528015136719 -0.9999964237213135 C 206.7808990478516 -0.9999964237213135 208.3127288818359 -0.3638963997364044 209.4661254882813 0.7911335825920105 C 210.6189270019531 1.945573568344116 211.2537841796875 3.478243589401245 211.2537536621094 5.106823444366455 C 211.2537536621094 8.474333763122559 208.5247802734375 11.21402359008789 205.17041015625 11.21402359008789 Z" stroke="none" fill="#1a73e8"/>
    </g>
    <path id="Path_308" data-name="Path 308" d="M18.729,305.985a1.369,1.369,0,0,0-1.766,0L15.131,307.6a1.148,1.148,0,0,1-.757.276H9.6a1.112,1.112,0,1,1,0-2.206h1.453a1.1,1.1,0,0,0,1.16-.979,1.072,1.072,0,0,0-1.136-1.026H6.906a4.939,4.939,0,0,0-3.592,1.488l-.677.758a.2.2,0,0,1-.147.063H.374a.354.354,0,0,0-.374.33v3.836a.354.354,0,0,0,.374.33H14.839a1.469,1.469,0,0,0,.969-.354l2.921-2.576A1.012,1.012,0,0,0,18.729,305.985Z" transform="translate(0 -291.377)" fill="none" stroke="#1a73e8" stroke-width="1"/>
  </g>
</svg>
