<svg xmlns="http://www.w3.org/2000/svg" width="22.5" height="22.824" viewBox="0 0 22.5 22.824">
  <path id="hr" d="M22.2,9.446h-.8l-1.2.64a1.766,1.766,0,0,0-.427-.178l-1.508-.383V9.351a2.562,2.562,0,0,0,1.075-2.085V6.631A2.594,2.594,0,0,0,16.906,4c-.068,0-.135,0-.2,0l.391-.929L15.2,1.149l-1.118.738a6.009,6.009,0,0,0-1.34-.564L12.464,0H9.736L9.46,1.323a6,6,0,0,0-1.34.564L7,1.149,5.107,3.072,5.491,4,5.448,4a2.468,2.468,0,0,0-1.822.717,2.538,2.538,0,0,0-.762,1.825v.727A2.561,2.561,0,0,0,3.939,9.35v.174l-.984.25L1.171,8.719H0v7.528l3.523,1.191h.686l.086-.3,1.08.658a1.123,1.123,0,0,0,1.075,1.1,1.123,1.123,0,0,0,1.074,1.09A1.123,1.123,0,0,0,8.6,21.067a1.11,1.11,0,0,0,1.741.9l.317.284a1.081,1.081,0,0,0,.721.276h.066a1.1,1.1,0,0,0,1.088-1.091,1.1,1.1,0,0,0,1.074-1.09,1.1,1.1,0,0,0,1.074-1.091,1.11,1.11,0,0,0,1.076-1.115,1.079,1.079,0,0,0-.005-.109L22.2,14.756ZM18.619,6.631v.635a1.829,1.829,0,0,1-.9,1.572l-.179.105v1.15l1.789.453-3.938,2.1V11.67a1.821,1.821,0,0,0-.513-1.266l1.229-.311V8.942l-.179-.1a1.827,1.827,0,0,1-.9-1.571V6.539a1.814,1.814,0,0,1,.544-1.3,1.752,1.752,0,0,1,1.3-.512,1.867,1.867,0,0,1,1.735,1.907Zm-6.98,5.732-1.621-.526a4.361,4.361,0,0,0-2.294-.106l-.205.046V11.67a1.086,1.086,0,0,1,.814-1.058l2.051-.52V8.942l-.179-.1a1.827,1.827,0,0,1-.9-1.571V6.539a1.814,1.814,0,0,1,.544-1.3,1.756,1.756,0,0,1,1.3-.512A1.867,1.867,0,0,1,12.89,6.631v.635a1.829,1.829,0,0,1-.9,1.572l-.179.105v1.15l2.051.52a1.086,1.086,0,0,1,.814,1.058v1.361l-.088.047h-.219l-2.2-.638a2.227,2.227,0,0,0-.532-.077ZM7.6,5.437a3.91,3.91,0,0,1,6.986-.029,2.557,2.557,0,0,0-.263,1.131v.727A2.561,2.561,0,0,0,15.4,9.35v.174l-1.432.364-1.433-.364V9.351a2.562,2.562,0,0,0,1.075-2.085V6.631A2.594,2.594,0,0,0,11.177,4a2.468,2.468,0,0,0-1.822.717,2.54,2.54,0,0,0-.761,1.825v.727A2.561,2.561,0,0,0,9.668,9.35v.174l-1.432.364L6.8,9.525V9.351A2.562,2.562,0,0,0,7.877,7.266V6.631A2.71,2.71,0,0,0,7.6,5.437ZM5.953,3.24,7.1,2.079,8.1,2.744l.193-.12a5.3,5.3,0,0,1,1.55-.652l.22-.054L10.316.726h1.568l.248,1.192.22.053a5.306,5.306,0,0,1,1.55.653l.193.12L15.1,2.079l1.143,1.16-.406.965a2.5,2.5,0,0,0-.756.51c-.015.015-.027.03-.042.045a4.615,4.615,0,0,0-7.9.022,2.526,2.526,0,0,0-.79-.568Zm-1.3,6.852V8.942l-.179-.1a1.827,1.827,0,0,1-.9-1.571V6.539a1.814,1.814,0,0,1,.544-1.3,1.753,1.753,0,0,1,1.3-.512A1.867,1.867,0,0,1,7.161,6.631v.635a1.829,1.829,0,0,1-.9,1.572l-.179.105v1.15l1.229.311A1.821,1.821,0,0,0,6.8,11.67v.269l-1.117.252.029-.1.014-.671L3.84,10.3ZM.716,9.446H.977L3.552,10.97l-1.3,5.273-1.537-.52Zm2.923,7.266-.7-.238L4.2,11.351l.817.483v.1L3.669,16.711Zm2.448,1.046a.413.413,0,0,1,.117-.288l.629-.639a.4.4,0,0,1,.685.288.413.413,0,0,1-.117.288l-.629.639a.4.4,0,0,1-.685-.288Zm1.074,1.09a.413.413,0,0,1,.117-.288l.629-.639a.4.4,0,0,1,.685.288.413.413,0,0,1-.117.288l-.629.639a.4.4,0,0,1-.685-.288Zm1.074,1.09a.413.413,0,0,1,.117-.288l.629-.639a.4.4,0,0,1,.685.288.413.413,0,0,1-.117.288l-.629.639a.4.4,0,0,1-.685-.288Zm1.476,1.5a.4.4,0,0,1-.4-.407.413.413,0,0,1,.117-.288l.629-.639a.4.4,0,0,1,.685.288.413.413,0,0,1-.117.288l-.629.639A.4.4,0,0,1,9.711,21.434Zm1.732.363h-.066a.368.368,0,0,1-.247-.095l-.268-.24.269-.273a1.13,1.13,0,0,0,.226-.338l.326.275a.38.38,0,0,1-.239.67Zm3.211-3.27h-.062a.381.381,0,0,1-.246-.091L12.4,16.8l-.459.558,1.886,1.594a.381.381,0,0,1,.134.291.377.377,0,0,1-.373.379h-.078a.37.37,0,0,1-.239-.088l-1.945-1.644-.459.558,1.886,1.594a.38.38,0,0,1-.239.669.586.586,0,0,1-.377-.138l-.8-.676a1.113,1.113,0,0,0-.961-.635,1.123,1.123,0,0,0-1.074-1.09,1.123,1.123,0,0,0-1.074-1.09,1.111,1.111,0,0,0-1.9-.762l-.629.639a1.116,1.116,0,0,0-.1.124l-1.1-.67.964-3.424,2.417-.545a3.638,3.638,0,0,1,1.921.088l.527.171-1.788.907A1.213,1.213,0,0,0,7.877,14.7v.072a1.21,1.21,0,0,0,1.2,1.217,1.183,1.183,0,0,0,.617-.174L11.027,15a.731.731,0,0,1,.859.084l3.025,2.762a.4.4,0,0,1,.127.291.388.388,0,0,1-.385.391Zm6.83-4.221-6.032,3.06c-.02-.021-.04-.041-.062-.061l-3.025-2.762a1.425,1.425,0,0,0-1.707-.167l-1.334.812a.474.474,0,0,1-.248.07.487.487,0,0,1-.483-.49V14.7a.488.488,0,0,1,.267-.439l2-1.013a1.536,1.536,0,0,1,1.116-.105l2.25.652.545.014,6.715-3.586Zm0,0" transform="translate(0.15 0.15)" fill="#b4b4b4" stroke="#b4b4b4" stroke-width="0.3"/>
</svg>
