<svg xmlns="http://www.w3.org/2000/svg" width="21.728" height="21.75" viewBox="0 0 21.728 21.75">
  <g id="loan" transform="translate(0.75 2)">
    <path id="Path_306" data-name="Path 306" d="M103.047,9.058a9.857,9.857,0,0,1,1.775-.068A6.066,6.066,0,0,1,106.153.01a5.081,5.081,0,0,0-3.107,9.048Z" transform="translate(-98.629 -0.01)" fill="none" stroke="#b4b4b4" stroke-width="1.5"/>
    <g id="Path_307" data-name="Path 307" transform="translate(-191.225 0)" fill="none">
      <path d="M201.876,8.981H203.2a1.982,1.982,0,0,1,1.813,1.181,5.082,5.082,0,1,0-3.137-1.181Zm2.759-6.5V2.062a.492.492,0,1,1,.985,0v.418a1.768,1.768,0,0,1,.693.125h0a1.831,1.831,0,0,1,.662.451.493.493,0,1,1-.718.674.819.819,0,0,0-.583-.265h-1.131a.562.562,0,0,0,0,1.123h1.173a1.549,1.549,0,1,1-.094,3.095V8.1a.492.492,0,1,1-.985,0V7.684a1.841,1.841,0,0,1-1.17-.329.493.493,0,0,1,.561-.81.829.829,0,0,0,.454.153h1.234a.562.562,0,0,0,0-1.123h-1.173a1.549,1.549,0,1,1,.094-3.095Z" stroke="none"/>
      <path d="M 205.1449584960938 10.163649559021 C 207.9025573730469 10.16378402709961 210.2034606933594 7.901063442230225 210.2034606933594 5.081616401672363 C 210.2035217285156 2.28040623664856 207.9276733398438 -3.660430820673355e-06 205.1276397705078 -3.660430820673355e-06 C 200.3751678466797 -3.660430820673355e-06 198.2584228515625 5.952306270599365 201.8763122558594 8.981296539306641 L 203.2003326416016 8.981296539306641 C 204.0196533203125 8.981296539306641 204.7098541259766 9.476146697998047 205.0130615234375 10.16192626953125 C 205.0570526123047 10.16307544708252 205.1011810302734 10.16364765167236 205.1449584960938 10.163649559021 M 204.6353149414063 7.683666229248047 C 204.6075286865234 7.683666229248047 204.5741271972656 7.684301853179932 204.5357666015625 7.684301853179932 C 204.3088684082031 7.684303283691406 203.9081115722656 7.662066459655762 203.4652252197266 7.35443639755249 C 203.24169921875 7.199026107788086 203.1862335205078 6.892116546630859 203.3415069580078 6.668336391448975 C 203.4370422363281 6.530337333679199 203.5904083251953 6.45630931854248 203.7462463378906 6.45630931854248 C 203.8431243896484 6.45630931854248 203.94091796875 6.484886169433594 204.0264587402344 6.544466495513916 C 204.1549987792969 6.634536266326904 204.3194274902344 6.696436405181885 204.480712890625 6.697906494140625 L 205.7144927978516 6.697906494140625 C 206.0256652832031 6.697906494140625 206.275390625 6.445776462554932 206.275390625 6.136366367340088 C 206.275390625 5.8265061378479 206.0236663818359 5.574466228485107 205.7141723632813 5.574466228485107 C 205.2803039550781 5.574466228485107 204.9749755859375 5.574466228485107 204.5411224365234 5.574466228485107 C 203.6890869140625 5.574466228485107 202.9955596923828 4.880486488342285 202.9955596923828 4.027166366577148 C 202.9955444335938 3.235146284103394 203.5924224853516 2.479536294937134 204.6353149414063 2.479536294937134 L 204.6353149414063 2.06187629699707 C 204.6353149414063 1.789786338806152 204.8558654785156 1.56899631023407 205.1276397705078 1.56899631023407 C 205.3997039794922 1.56899631023407 205.6199493408203 1.789786338806152 205.6199493408203 2.06187629699707 L 205.6199493408203 2.479496240615845 C 205.8568420410156 2.479496240615845 206.0668640136719 2.507036447525024 206.3124847412109 2.60434627532959 L 206.3124847412109 2.604676246643066 C 206.5599517822266 2.70258641242981 206.7870941162109 2.856056451797485 206.9741516113281 3.055846452713013 C 207.1602630615234 3.254316329956055 207.1500854492188 3.566476345062256 206.9515380859375 3.752446413040161 C 206.8544464111328 3.843112230300903 206.7340545654297 3.885726690292358 206.6154479980469 3.885730266571045 C 206.4811553955078 3.88573431968689 206.3491363525391 3.831114053726196 206.2557067871094 3.729766368865967 C 206.1001281738281 3.563826322555542 205.8877868652344 3.467556238174438 205.6724548339844 3.465256452560425 L 204.5411224365234 3.465256452560425 C 204.2322387695313 3.465256452560425 203.9801940917969 3.715226411819458 203.9801940917969 4.027166366577148 C 203.9801940917969 4.336706161499023 204.23193359375 4.588706493377686 204.5411224365234 4.588706493377686 L 205.7141723632813 4.588706493377686 C 206.5664978027344 4.588706493377686 207.2600402832031 5.283046245574951 207.2600402832031 6.136366367340088 C 207.2600402832031 6.8960862159729 206.7025146484375 7.683666229248047 205.6199493408203 7.683666229248047 L 205.6199493408203 8.101285934448242 C 205.6199493408203 8.373676300048828 205.3997039794922 8.59416675567627 205.1276397705078 8.59416675567627 C 204.8558654785156 8.59416675567627 204.6353149414063 8.373676300048828 204.6353149414063 8.101285934448242 L 204.6353149414063 7.683666229248047 M 205.1452178955078 12.16364669799805 L 205.1452178955078 10.16364669799805 L 205.1452178955078 12.16364669799805 L 205.1450958251953 12.16364669799805 L 205.1448669433594 12.16364669799805 C 205.0838470458984 12.16364669799805 205.022216796875 12.16284656524658 204.9607849121094 12.16124629974365 L 203.6956481933594 12.12816619873047 L 203.1885833740234 10.98132610321045 L 201.8763122558594 10.98129653930664 L 201.1496276855469 10.98129653930664 L 200.5924224853516 10.51479625701904 C 198.2826690673828 8.581006050109863 197.4572296142578 5.495706558227539 198.4895172119141 2.654636383056641 C 198.9714050292969 1.328416347503662 199.8116149902344 0.1916863322257996 200.9193420410156 -0.6326536536216736 C 202.1213836669922 -1.527183651924133 203.5765838623047 -2.000003576278687 205.1276397705078 -2.000003576278687 C 207.0163879394531 -2.000003576278687 208.793212890625 -1.262323617935181 210.1307983398438 0.0771363377571106 C 211.4674072265625 1.415636301040649 212.2035064697266 3.192946434020996 212.2034606933594 5.081656455993652 C 212.2034606933594 8.986656188964844 209.0371398925781 12.16364669799805 205.1452178955078 12.16364669799805 Z" stroke="none" fill="#b4b4b4"/>
    </g>
    <path id="Path_308" data-name="Path 308" d="M18.637,305.973a1.363,1.363,0,0,0-1.757,0l-1.823,1.608a1.143,1.143,0,0,1-.753.275H9.557a1.106,1.106,0,1,1,0-2.195H11a1.091,1.091,0,0,0,1.154-.974,1.067,1.067,0,0,0-1.13-1.021H6.872A4.915,4.915,0,0,0,3.3,305.147l-.674.754a.2.2,0,0,1-.146.063H.373a.353.353,0,0,0-.373.329v3.818a.353.353,0,0,0,.373.329H14.765a1.462,1.462,0,0,0,.965-.352l2.906-2.563A1.007,1.007,0,0,0,18.637,305.973Z" transform="translate(0 -291.438)" fill="none" stroke="#b4b4b4" stroke-width="1.5"/>
  </g>
</svg>
