<svg xmlns="http://www.w3.org/2000/svg" width="18.636" height="13.2" viewBox="0 0 18.636 13.2">
  <g id="pass_2_" data-name="pass (2)" transform="translate(0 -74.667)">
    <g id="Group_1838" data-name="Group 1838" transform="translate(0 74.667)">
      <g id="Group_1837" data-name="Group 1837" transform="translate(0 0)">
        <path id="Path_1968" data-name="Path 1968" d="M299.054,224.776h3.882a.388.388,0,1,0,0-.776h-3.882a.388.388,0,1,0,0,.776Z" transform="translate(-287.795 -218.565)" fill="#727272"/>
        <path id="Path_1969" data-name="Path 1969" d="M299.054,160.776h3.882a.388.388,0,1,0,0-.776h-3.882a.388.388,0,1,0,0,.776Z" transform="translate(-287.795 -156.894)" fill="#727272"/>
        <path id="Path_1970" data-name="Path 1970" d="M17.047,76.256a1.942,1.942,0,0,0-1.906-1.589H1.941A1.944,1.944,0,0,0,0,76.608v7.765a1.942,1.942,0,0,0,1.589,1.906,1.942,1.942,0,0,0,1.906,1.589h13.2a1.944,1.944,0,0,0,1.941-1.941V78.161A1.942,1.942,0,0,0,17.047,76.256ZM1.941,85.538A1.166,1.166,0,0,1,.776,84.373V76.608a1.166,1.166,0,0,1,1.165-1.165h13.2a1.166,1.166,0,0,1,1.165,1.165v7.765a1.166,1.166,0,0,1-1.165,1.165Zm15.918.388a1.166,1.166,0,0,1-1.165,1.165H3.494A1.163,1.163,0,0,1,2.4,86.314H15.142a1.944,1.944,0,0,0,1.941-1.941V77.068a1.163,1.163,0,0,1,.776,1.093v7.765Z" transform="translate(0 -74.667)" fill="#727272"/>
        <path id="Path_1971" data-name="Path 1971" d="M46.938,117.333a4.268,4.268,0,0,0-3.021,7.287s0,0,0,.006.02.016.03.024a4.327,4.327,0,0,0,.6.494c.025.017.052.03.078.047a4.272,4.272,0,0,0,.652.349c.027.012.055.019.082.03a4.277,4.277,0,0,0,.723.219l.046.007a4.172,4.172,0,0,0,1.61,0l.046-.007a4.208,4.208,0,0,0,.723-.219c.027-.011.055-.019.082-.03a4.2,4.2,0,0,0,.652-.349c.026-.016.053-.03.078-.047a4.323,4.323,0,0,0,.6-.494c.009-.009.02-.016.03-.024s0,0,0-.006a4.268,4.268,0,0,0-3.021-7.287Zm2.1,7.047c-.082.061-.162.123-.248.176-.07.043-.144.079-.217.118a3.623,3.623,0,0,1-3.264,0c-.073-.039-.148-.075-.217-.118-.086-.053-.167-.115-.248-.176-.061-.047-.12-.1-.178-.147a2.5,2.5,0,0,1,4.553,0C49.156,124.283,49.1,124.333,49.036,124.38Zm-3.263-3.552a1.165,1.165,0,1,1,1.165,1.165A1.166,1.166,0,0,1,45.773,120.827Zm4,2.806a3.315,3.315,0,0,0-1.544-1.365,1.942,1.942,0,1,0-2.576,0,3.315,3.315,0,0,0-1.544,1.365,3.46,3.46,0,0,1-.662-2.029,3.494,3.494,0,1,1,6.327,2.03Z" transform="translate(-41.114 -115.78)" fill="#727272"/>
        <path id="Path_1972" data-name="Path 1972" d="M303.325,288.388a.388.388,0,0,0-.388-.388h-3.882a.388.388,0,1,0,0,.776h3.882A.388.388,0,0,0,303.325,288.388Z" transform="translate(-287.795 -280.235)" fill="#727272"/>
      </g>
    </g>
  </g>
</svg>
