<svg xmlns="http://www.w3.org/2000/svg" width="22.569" height="22.569" viewBox="0 0 22.569 22.569">
  <g id="payable" transform="translate(-893.916 -152.85)">
    <path id="Path_2032" data-name="Path 2032" d="M18.558,3.932V1.856A1.858,1.858,0,0,0,16.7,0H1.856A1.858,1.858,0,0,0,0,1.856v8.165a1.852,1.852,0,0,0,1.664,1.837l1.4,3.622a1.856,1.856,0,0,0,2.4,1.065l8.712-3.356a5.365,5.365,0,0,0,.462,4.764l.213.341V21.9a.371.371,0,0,0,.371.371H21.9a.371.371,0,0,0,.371-.371V9.647a4.857,4.857,0,0,0-1.422-3.421Zm0,2.22,1.126,2.924a1.113,1.113,0,0,1-.639,1.439l-.644.249a1.856,1.856,0,0,0,.157-.742ZM.742,10.021V1.856A1.114,1.114,0,0,1,1.856.742H16.7a1.114,1.114,0,0,1,1.113,1.113V4.215h0l0,.008v5.8a1.129,1.129,0,0,1-.025.192l-3.4-3.4a1.98,1.98,0,0,0-2.858,2.738l1.449,1.583H1.856A1.114,1.114,0,0,1,.742,10.021ZM5.5,11.877,2.858,12.893l-.39-1.016Zm-.306,3.974a1.113,1.113,0,0,1-1.439-.639l-.626-1.628,4.43-1.707v0h6.106l.482.526Zm16.336,5.676H15.589V18.558h5.938Zm0-3.712h-6.1l-.161-.257a4.628,4.628,0,0,1-.094-4.753.371.371,0,0,0-.049-.435L12.078,9.052A1.238,1.238,0,0,1,13.866,7.34l5.914,5.913.525-.525-1.373-1.373.381-.148a1.856,1.856,0,0,0,1.064-2.4L19.12,5.546l1.2,1.2a4.11,4.11,0,0,1,1.2,2.9Zm0,0" transform="translate(894.066 153)" fill="#b4b4b4" stroke="#b4b4b4" stroke-width="0.3"/>
    <path id="Path_2033" data-name="Path 2033" d="M65.247,66.212a.965.965,0,0,0,.965-.965V63.465a.965.965,0,0,0-.965-.965H63.465a.965.965,0,0,0-.965.965v1.782a.965.965,0,0,0,.965.965Zm-2-.965v-.52h.742v-.742h-.742v-.52a.223.223,0,0,1,.223-.223h1.782a.223.223,0,0,1,.223.223v.52h-.742v.742h.742v.52a.223.223,0,0,1-.223.223H63.465A.223.223,0,0,1,63.242,65.247Zm0,0" transform="translate(833.051 91.985)" fill="#b4b4b4" stroke="#b4b4b4" stroke-width="0.3"/>
    <path id="Path_2034" data-name="Path 2034" d="M78.125,265.625H79.61v.742H78.125Zm0,0" transform="translate(817.797 -106.315)" fill="#b4b4b4" stroke="#b4b4b4" stroke-width="0.3"/>
    <path id="Path_2035" data-name="Path 2035" d="M78.125,359.375H79.61v.742H78.125Zm0,0" transform="translate(817.797 -197.838)" fill="#b4b4b4" stroke="#b4b4b4" stroke-width="0.3"/>
    <path id="Path_2036" data-name="Path 2036" d="M359.375,359.375h1.485v.742h-1.485Zm0,0" transform="translate(543.228 -197.838)" fill="#b4b4b4" stroke="#b4b4b4" stroke-width="0.3"/>
    <path id="Path_2037" data-name="Path 2037" d="M171.875,265.625h1.485v.742h-1.485Zm0,0" transform="translate(726.274 -106.315)" fill="#b4b4b4" stroke="#b4b4b4" stroke-width="0.3"/>
    <path id="Path_2038" data-name="Path 2038" d="M265.625,265.625h1.485v.742h-1.485Zm0,0" transform="translate(634.751 -106.315)" fill="#b4b4b4" stroke="#b4b4b4" stroke-width="0.3"/>
    <path id="Path_2039" data-name="Path 2039" d="M359.375,265.625h1.485v.742h-1.485Zm0,0" transform="translate(543.228 -106.315)" fill="#b4b4b4" stroke="#b4b4b4" stroke-width="0.3"/>
    <path id="Path_2040" data-name="Path 2040" d="M656.25,78.125h.742v1.113h-.742Zm0,0" transform="translate(253.405 76.731)" fill="#b4b4b4" stroke="#b4b4b4" stroke-width="0.3"/>
    <path id="Path_2041" data-name="Path 2041" d="M593.75,78.125h.742v1.113h-.742Zm0,0" transform="translate(314.42 76.731)" fill="#b4b4b4" stroke="#b4b4b4" stroke-width="0.3"/>
    <path id="Path_2042" data-name="Path 2042" d="M531.25,78.125h.742v1.113h-.742Zm0,0" transform="translate(375.436 76.731)" fill="#b4b4b4" stroke="#b4b4b4" stroke-width="0.3"/>
    <path id="Path_2043" data-name="Path 2043" d="M468.75,78.125h.742v1.113h-.742Zm0,0" transform="translate(436.451 76.731)" fill="#b4b4b4" stroke="#b4b4b4" stroke-width="0.3"/>
  </g>
</svg>
