<svg xmlns="http://www.w3.org/2000/svg" width="18.877" height="21.736" viewBox="0 0 18.877 21.736">
  <path id="taxes" d="M38.873,20.334H36.123a2.1,2.1,0,0,1-2.066-2.5L35.2,11.855a5.7,5.7,0,0,1,7.3-4.363.7.7,0,0,0,.424-1.336,2.014,2.014,0,0,0-.753-2.673l1.339-2.444A.7.7,0,0,0,42.9,0H38.347a.7.7,0,0,0-.615,1.038l1.339,2.444a2.014,2.014,0,0,0-.7,2.774,7.112,7.112,0,0,0-4.547,5.334L32.68,17.569a3.506,3.506,0,0,0,3.443,4.166h2.749a.7.7,0,0,0,0-1.4ZM41.721,1.4l-.985,1.8h-.221l-.985-1.8ZM40.1,5.828a.614.614,0,1,1,0-1.227h1.047a.614.614,0,1,1,0,1.227Zm6.914,6.978a.7.7,0,0,1,0,.992l-3.458,3.458a.7.7,0,1,1-.992-.992l3.458-3.458a.7.7,0,0,1,.992,0Zm-.784,3.022a.932.932,0,1,0,.932.932A.933.933,0,0,0,46.23,15.828Zm-2.882-1.595a.932.932,0,1,0-.932-.932A.933.933,0,0,0,43.348,14.234Zm1.441-5.908a6.7,6.7,0,1,0,6.7,6.7A6.712,6.712,0,0,0,44.789,8.326Zm0,12.007a5.3,5.3,0,1,1,5.3-5.3A5.308,5.308,0,0,1,44.789,20.334Z" transform="translate(-32.617 0)" fill="#b4b4b4"/>
</svg>
