<svg xmlns="http://www.w3.org/2000/svg" width="21.352" height="21.352" viewBox="0 0 21.352 21.352">
  <g id="Group_2336" data-name="Group 2336" transform="translate(-683.324 -154.324)">
    <path id="Path_2123" data-name="Path 2123" d="M19.059,0H2.293A2.3,2.3,0,0,0,0,2.294V19.059a2.3,2.3,0,0,0,2.294,2.294H19.059a2.3,2.3,0,0,0,2.294-2.294V2.294A2.3,2.3,0,0,0,19.059,0ZM2.293,1.251H19.059A1.044,1.044,0,0,1,20.1,2.294V5.046H1.251V2.294A1.044,1.044,0,0,1,2.293,1.251ZM19.059,20.1H2.293a1.044,1.044,0,0,1-1.042-1.042V6.3H20.1V19.059A1.044,1.044,0,0,1,19.059,20.1Zm0,0" transform="translate(683.324 154.324)" fill="#623cea"/>
    <path id="Path_2124" data-name="Path 2124" d="M422.251,61.626a.626.626,0,1,1-.626-.626A.626.626,0,0,1,422.251,61.626Zm0,0" transform="translate(279.881 95.868)" fill="#623cea"/>
    <path id="Path_2125" data-name="Path 2125" d="M362.251,61.626a.626.626,0,1,1-.626-.626A.626.626,0,0,1,362.251,61.626Zm0,0" transform="translate(337.379 95.868)" fill="#623cea"/>
    <path id="Path_2126" data-name="Path 2126" d="M302.251,61.626a.626.626,0,1,1-.626-.626A.626.626,0,0,1,302.251,61.626Zm0,0" transform="translate(394.877 95.868)" fill="#623cea"/>
    <path id="Path_2127" data-name="Path 2127" d="M76.639,181H61.626a.626.626,0,0,0-.626.626v3.753a.626.626,0,0,0,.626.626H76.639a.626.626,0,0,0,.626-.626v-3.753A.626.626,0,0,0,76.639,181Zm-.626,3.753H62.251v-2.5H76.013Zm0,0" transform="translate(624.868 -19.128)" fill="#623cea"/>
    <path id="Path_2128" data-name="Path 2128" d="M67.881,331H61.626a.626.626,0,0,0-.626.626v3.753a.626.626,0,0,0,.626.626h6.256a.626.626,0,0,0,.626-.626v-3.753A.625.625,0,0,0,67.881,331Zm-.626,3.753h-5v-2.5h5Zm0,0" transform="translate(624.868 -162.872)" fill="#623cea"/>
    <path id="Path_2129" data-name="Path 2129" d="M277.881,331h-6.256a.625.625,0,0,0-.626.626v3.753a.626.626,0,0,0,.626.626h6.256a.626.626,0,0,0,.626-.626v-3.753A.625.625,0,0,0,277.881,331Zm-.626,3.753h-5v-2.5h5Zm0,0" transform="translate(423.626 -162.872)" fill="#623cea"/>
  </g>
</svg>
