<svg xmlns="http://www.w3.org/2000/svg" width="54.609" height="38.227" viewBox="0 0 54.609 38.227">
  <g id="truck" transform="translate(0 -76.8)">
    <g id="Group_1681" data-name="Group 1681" transform="translate(0 76.8)">
      <g id="Group_1680" data-name="Group 1680" transform="translate(0 0)">
        <path id="Path_1888" data-name="Path 1888" d="M96.6,349.867a2.73,2.73,0,1,0,2.73,2.73A2.731,2.731,0,0,0,96.6,349.867Zm0,3.641a.91.91,0,1,1,.91-.91A.91.91,0,0,1,96.6,353.508Z" transform="translate(-83.855 -320.742)" fill="#2abed5"/>
        <path id="Path_1889" data-name="Path 1889" d="M369.663,349.867a2.73,2.73,0,1,0,2.73,2.73A2.731,2.731,0,0,0,369.663,349.867Zm0,3.641a.91.91,0,1,1,.91-.91A.91.91,0,0,1,369.663,353.508Z" transform="translate(-327.796 -320.742)" fill="#2abed5"/>
        <path id="Path_1890" data-name="Path 1890" d="M53.916,92.969l-6.27-7.061a2.73,2.73,0,0,0-2.047-.917H37.316V79.53a2.733,2.733,0,0,0-2.73-2.73H2.73A2.733,2.733,0,0,0,0,79.53v23.664a.91.91,0,0,0,.91.91h.91v2.73a2.733,2.733,0,0,0,2.73,2.73H6.444a6.363,6.363,0,0,0,12.6,0H35.569a6.363,6.363,0,0,0,12.6,0h3.713a2.733,2.733,0,0,0,2.73-2.73V94.785A2.728,2.728,0,0,0,53.916,92.969Zm-52.1,9.315V79.53a.911.911,0,0,1,.91-.91H34.586a.911.911,0,0,1,.91.91v22.754Zm4.623,5.461H4.551a.911.911,0,0,1-.91-.91V104.1H8.292A6.354,6.354,0,0,0,6.444,107.745Zm6.3,5.461a4.551,4.551,0,1,1,4.551-4.551A4.551,4.551,0,0,1,12.742,113.206Zm9.1-5.461h-2.8a6.354,6.354,0,0,0-1.848-3.641h4.651Zm8.191,0H23.664V104.1h6.371Zm5.534,0H31.856V104.1h5.562A6.354,6.354,0,0,0,35.569,107.745Zm6.3,5.461a4.551,4.551,0,1,1,4.551-4.551A4.551,4.551,0,0,1,41.867,113.206Zm10.922-6.371a.911.911,0,0,1-.91.91H48.166a6.376,6.376,0,0,0-6.3-5.461H37.316V86.812h3.641v9.1a2.733,2.733,0,0,0,2.73,2.73h9.1Zm0-10.012h-9.1a.911.911,0,0,1-.91-.91v-9.1H45.6a.912.912,0,0,1,.685.3l6.272,7.063a.913.913,0,0,1,.233.605v2.039Z" transform="translate(0 -76.8)" fill="#2abed5"/>
      </g>
    </g>
  </g>
</svg>
