<svg id="Layer_1" data-name="Layer 1" xmlns="http://www.w3.org/2000/svg" viewBox="0 0 48 48"><defs><style>.cls-1{fill:none;}</style></defs><rect class="cls-1" x="16.76" y="6.08" width="14.49" height="11.12"/><rect class="cls-1" x="9.46" y="18.44" width="13.93" height="9.99"/><rect class="cls-1" x="24.63" y="18.44" width="13.93" height="9.99"/><path class="cls-1" d="M10.52,34.17a3.88,3.88,0,1,0,3.87,3.88A3.88,3.88,0,0,0,10.52,34.17Zm0,5.06a1.19,1.19,0,1,1,1.19-1.18A1.18,1.18,0,0,1,10.52,39.23Z"/><path class="cls-1" d="M1.59,36.3H5.7l.14-.3a5.11,5.11,0,0,1,9.37,0l.13.3H32.67l.14-.3a5.11,5.11,0,0,1,9.37,0l.13.3h4.11V29.68H1.59Z"/><path class="cls-1" d="M37.49,34.17a3.88,3.88,0,1,0,3.87,3.88A3.88,3.88,0,0,0,37.49,34.17Zm0,5.06a1.19,1.19,0,1,1,1.18-1.18A1.18,1.18,0,0,1,37.49,39.23Z"/><path d="M47,28.43H39.8V17.82a.67.67,0,0,0-.62-.62H32.49V5.46a.65.65,0,0,0-.62-.62H16.06a.66.66,0,0,0-.54.62V17.2H8.77a.65.65,0,0,0-.56.62V28.43H.89a.66.66,0,0,0-.54.63v7.86a.66.66,0,0,0,.62.62H5.4v.51a5.12,5.12,0,0,0,10.24,0v-.51H32.37v.51a5.12,5.12,0,0,0,10.24,0v-.51H47a.65.65,0,0,0,.62-.62V29.06A.66.66,0,0,0,47,28.43Zm-8.49-10v10H24.63v-10ZM16.76,6.08H31.25V17.2H16.76ZM9.46,18.44H23.38v10H9.46Zm1.06,23.48a3.88,3.88,0,1,1,3.87-3.87A3.88,3.88,0,0,1,10.52,41.92Zm27,0a3.88,3.88,0,1,1,3.87-3.87A3.88,3.88,0,0,1,37.49,41.92Zm8.93-5.62H42.31l-.13-.3a5.11,5.11,0,0,0-9.37,0l-.14.3H15.34l-.13-.3a5.11,5.11,0,0,0-9.37,0l-.14.3H1.59V29.68H46.42Z"/><path d="M37.49,36.86a1.19,1.19,0,1,0,1.18,1.19A1.18,1.18,0,0,0,37.49,36.86Z"/><path d="M10.52,36.86a1.19,1.19,0,1,0,1.19,1.19A1.18,1.18,0,0,0,10.52,36.86Z"/></svg>