<svg id="Layer_1" data-name="Layer 1" xmlns="http://www.w3.org/2000/svg" viewBox="0 0 48 48"><defs><style>.cls-1{fill:none;}</style></defs><path class="cls-1" d="M2.93,35.78H6.8l.12-.28a4.8,4.8,0,0,1,8.81,0l.12.28h16.3l.12-.28a4.8,4.8,0,0,1,8.81,0l.12.28h3.87V29.56H2.93Z"/><path class="cls-1" d="M36.68,33.78a3.65,3.65,0,1,0,3.64,3.64A3.66,3.66,0,0,0,36.68,33.78Zm0,4.76a1.12,1.12,0,1,1,1.11-1.12A1.12,1.12,0,0,1,36.68,38.54Z"/><path class="cls-1" d="M11.32,33.78A3.65,3.65,0,1,0,15,37.42,3.65,3.65,0,0,0,11.32,33.78Zm0,4.76a1.12,1.12,0,1,1,1.12-1.12A1.12,1.12,0,0,1,11.32,38.54Z"/><path d="M36.68,36.31a1.12,1.12,0,1,0,1.11,1.11A1.12,1.12,0,0,0,36.68,36.31Z"/><path d="M11.32,36.31a1.12,1.12,0,1,0,1.12,1.11A1.11,1.11,0,0,0,11.32,36.31Z"/><path d="M45.66,28.39H2.27a.63.63,0,0,0-.51.58v7.4a.63.63,0,0,0,.59.58H6.51v.47a4.81,4.81,0,0,0,9.62,0V37H31.87v.47a4.81,4.81,0,0,0,9.62,0V37h4.16a.63.63,0,0,0,.59-.58V29A.62.62,0,0,0,45.66,28.39ZM11.32,41.07A3.65,3.65,0,1,1,15,37.42,3.66,3.66,0,0,1,11.32,41.07Zm25.36,0a3.65,3.65,0,1,1,3.64-3.65A3.66,3.66,0,0,1,36.68,41.07Zm8.39-5.29H41.2l-.12-.28a4.8,4.8,0,0,0-8.81,0l-.12.28H15.85l-.12-.28a4.8,4.8,0,0,0-8.81,0l-.12.28H2.93V29.56H45.07Z"/><rect class="cls-1" x="29.46" y="11.15" width="3.29" height="0.58"/><rect class="cls-1" x="29.46" y="12.72" width="3.29" height="2.18"/><path class="cls-1" d="M46.66,18.58a7.44,7.44,0,0,0-7.43-7.43H33.74V26h5.49A7.44,7.44,0,0,0,46.66,18.58Z"/><rect class="cls-1" x="20.77" y="8.65" width="6.45" height="1.51"/><rect class="cls-1" x="29.46" y="15.9" width="3.29" height="2.18"/><path class="cls-1" d="M11.3,20.21a1.41,1.41,0,0,0,1.41-1.41A4.94,4.94,0,0,0,12,17.1l-.24-.44-.48-.9-.49.91-.23.43h0a4.94,4.94,0,0,0-.69,1.7A1.41,1.41,0,0,0,11.3,20.21Z"/><rect class="cls-1" x="29.46" y="25.42" width="3.29" height="0.59"/><rect class="cls-1" x="29.46" y="22.25" width="3.29" height="2.18"/><rect class="cls-1" x="29.46" y="19.07" width="3.29" height="2.18"/><polygon class="cls-1" points="28.21 6.77 19.81 6.76 19.79 7.55 28.21 7.56 28.21 6.77"/><path class="cls-1" d="M8.77,26h19.7V11.15H8.77A7.43,7.43,0,0,0,8.77,26Zm.94-9.38.22-.42,1.37-2.56,1.36,2.55c.07.13.15.27.23.43a5.28,5.28,0,0,1,.82,2.17,2.41,2.41,0,0,1-2.41,2.4h0a2.41,2.41,0,0,1-2.41-2.4A5.28,5.28,0,0,1,9.71,16.63Z"/><path d="M8.77,27H39.23a8.42,8.42,0,1,0,0-16.84h-11V8.64a1,1,0,0,0,1-1V6.78a1,1,0,0,0-1-1H19.81a1,1,0,0,0-1,1v.86a1,1,0,0,0,1,1v1.52h-11A8.42,8.42,0,0,0,8.77,27Zm24-1H29.46v-.59h3.29Zm0-1.58H29.46V22.25h3.29Zm0-3.18H29.46V19.07h3.29Zm0-3.17H29.46V15.9h3.29Zm1-6.93h5.49a7.43,7.43,0,0,1,0,14.86H33.74Zm-1,3.75H29.46V12.72h3.29Zm-3.29-3.75h3.29v.58H29.46ZM19.81,6.76h8.4v.79H19.79Zm7.41,1.89v1.51H20.77V8.65ZM8.77,11.15h19.7V26H8.77a7.43,7.43,0,0,1,0-14.86Z"/><path d="M11.3,21.2h0a2.41,2.41,0,0,0,2.41-2.4,5.28,5.28,0,0,0-.82-2.17c-.08-.16-.16-.3-.23-.43L11.3,13.65,9.93,16.21l-.22.42a5.28,5.28,0,0,0-.82,2.17A2.41,2.41,0,0,0,11.3,21.2Zm-.72-4.1h0l.23-.43.49-.91.48.9.24.44a4.94,4.94,0,0,1,.69,1.7,1.41,1.41,0,0,1-2.82,0A4.94,4.94,0,0,1,10.58,17.1Z"/></svg>