<svg xmlns="http://www.w3.org/2000/svg" width="20.367" height="15.957" viewBox="0 0 20.367 15.957"><defs><style>.a{fill:#2d2d39;}</style></defs><path class="a" d="M6.131,46.583a.491.491,0,0,0,0-.694l-.826-.826a1.986,1.986,0,0,0,.22-.53H6.692a.491.491,0,0,0,0-.981H5.525a1.982,1.982,0,0,0-.22-.53l.826-.826a.491.491,0,1,0-.694-.694l-.826.826a1.984,1.984,0,0,0-.53-.22V40.943a.491.491,0,1,0-.981,0v1.167a1.986,1.986,0,0,0-.53.22L1.745,41.5a.491.491,0,1,0-.694.694l.826.826a1.983,1.983,0,0,0-.22.53H.491a.491.491,0,0,0,0,.981H1.657a1.984,1.984,0,0,0,.22.53l-.826.826a.491.491,0,1,0,.694.694l.826-.826a1.986,1.986,0,0,0,.53.22v1.167a.491.491,0,1,0,.981,0V45.977a1.985,1.985,0,0,0,.53-.22l.826.826A.491.491,0,0,0,6.131,46.583ZM4.605,44.068a1.011,1.011,0,0,1-.286.681l-.011.011-.011.011a1.01,1.01,0,0,1-.682.286H3.567a1.011,1.011,0,0,1-.682-.286l-.011-.011-.011-.011a1.01,1.01,0,0,1-.286-.682c0-.008,0-.016,0-.024s0-.016,0-.024a1.011,1.011,0,0,1,.286-.682l.011-.011.011-.011a1.011,1.011,0,0,1,.682-.286h.048a1.011,1.011,0,0,1,.681.286l.011.011.011.011a1.01,1.01,0,0,1,.286.68c0,.008,0,.017,0,.025S4.6,44.06,4.605,44.068ZM3.479,51.2a.491.491,0,0,1-.491.491H.491a.491.491,0,0,1,0-.981h2.5A.491.491,0,0,1,3.479,51.2Zm0,1.762a.491.491,0,0,1-.491.491H1.871a.491.491,0,0,1,0-.981H2.988A.491.491,0,0,1,3.479,52.96ZM7.26,50.044a.491.491,0,0,1,.491-.491H8.3a.491.491,0,1,1,0,.981H7.75A.491.491,0,0,1,7.26,50.044Zm13.1.922c-.031-1.386-.347-1.666-1.523-2.708-.134-.118-.28-.248-.441-.393-.107-.1-.215-.2-.328-.308-.178-.17-.363-.347-.567-.518l-.449-.378c-1.827-1.539-2.583-2.175-4.477-2.175H8.465a.491.491,0,0,0,0,.981h4.112c1.535,0,2.024.412,3.845,1.945l.451.379c.18.151.352.315.519.475.114.109.232.222.351.328.163.146.311.277.446.4.26.23.462.41.62.561H11.841a4.873,4.873,0,0,1-1.221-1,9.04,9.04,0,0,1-1.044-1.184.491.491,0,0,0-.9.386,8.266,8.266,0,0,0,1.289,1.529c1.262,1.247,1.674,1.247,1.85,1.247H19.36c.013.127.017.274.021.453.006.256,0,.806,0,1.207v.279c0,.209,0,.447,0,.74a.306.306,0,0,1-.1.212,2.314,2.314,0,1,0,.062,1.076,1.4,1.4,0,0,0,1.017-1.288c0-.292,0-.528,0-.736V52.2C20.366,51.77,20.369,51.236,20.363,50.966ZM18.4,54.1a1.331,1.331,0,1,1,0-.006S18.4,54.094,18.4,54.1Zm-.842,0a.491.491,0,1,1-.492-.491h0A.491.491,0,0,1,17.557,54.1ZM13.186,53.6H10.354a2.314,2.314,0,0,0-4.479-.174.383.383,0,0,1-.074-.1.26.26,0,0,1-.029-.116V48.646a.491.491,0,1,0-.981,0v4.569a1.232,1.232,0,0,0,.131.554,1.482,1.482,0,0,0,.892.737,2.314,2.314,0,0,0,4.539.08h2.832a.491.491,0,1,0,0-.981ZM8.093,55.428A1.334,1.334,0,0,1,6.76,54.1q0-.009,0-.018a1.333,1.333,0,1,1,1.333,1.344ZM8.584,54.1a.491.491,0,1,1-.492-.491h0A.491.491,0,0,1,8.584,54.1Z" transform="translate(0 -40.452)"/></svg>