<svg xmlns="http://www.w3.org/2000/svg" width="14.781" height="11.086" viewBox="0 0 14.781 11.086"><defs><style>.a{fill:#2d2d39;}</style></defs><g transform="translate(0 -68.318)"><path class="a" d="M14.319,69.242H12.934V68.78a.462.462,0,0,0-.462-.462H10.624a.462.462,0,0,0-.462.462v.462H4.619V68.78a.462.462,0,0,0-.462-.462H2.31a.462.462,0,0,0-.462.462v.462H.462A.462.462,0,0,0,0,69.7v9.238a.462.462,0,0,0,.462.462H14.319a.462.462,0,0,0,.462-.462V69.7A.462.462,0,0,0,14.319,69.242Zm-.462,9.238H.924V70.166H13.857V78.48Z"/><path class="a" d="M69.243,173.569h.924v-.924h.924v-.924h-.924V170.8h-.924v.924h-.924v.924h.924Z" transform="translate(-66.471 -99.708)"/><path class="a" d="M375.753,204.956h2.771v.924h-2.771Z" transform="translate(-365.591 -132.943)"/></g></svg>