<svg xmlns="http://www.w3.org/2000/svg" width="14.565" height="14.581" viewBox="0 0 14.565 14.581"><defs><style>.a{fill:#2d2d39;}</style></defs><g transform="translate(-0.283 0)"><g transform="translate(0.283 0)"><g transform="translate(0 0)"><path class="a" d="M12.5,2.365A7.483,7.483,0,0,0,6.927.018a.3.3,0,0,0-.276.3v.955a6.889,6.889,0,0,0-6.217,5.4,6.463,6.463,0,0,0,3.641,7.278,6.6,6.6,0,0,0,2.79.628,6.533,6.533,0,0,0,3.349-.934A6.98,6.98,0,0,0,13.575,8.2h.955a.3.3,0,0,0,.3-.282A7.194,7.194,0,0,0,12.5,2.365Zm-2.6,10.761a5.893,5.893,0,0,1-5.562.285,5.873,5.873,0,0,1-3.318-6.6A6.285,6.285,0,0,1,6.65,1.885v1.77a.3.3,0,0,0,.235.3c2.507.577,3.819,1.879,4.01,3.976a.3.3,0,0,0,.3.276h1.77A6.38,6.38,0,0,1,9.907,13.126ZM14.243,7.6l-2.775,0c-.295-2.134-1.71-3.539-4.211-4.178V.607h.086A7.234,7.234,0,0,1,12.081,2.8,6.69,6.69,0,0,1,14.243,7.6Z" transform="translate(-0.283 0)"/><path class="a" d="M113.337,160.31a3.463,3.463,0,1,0,3.463,3.463h0A3.466,3.466,0,0,0,113.337,160.31Zm0,6.348h0a2.886,2.886,0,1,1,2.886-2.886A2.886,2.886,0,0,1,113.337,166.659Z" transform="translate(-106.753 -155.745)"/><circle class="a" cx="0.608" cy="0.608" r="0.608" transform="translate(5.977 9.371)"/><circle class="a" cx="0.608" cy="0.608" r="0.608" transform="translate(5.977 5.557)"/><circle class="a" cx="0.608" cy="0.608" r="0.608" transform="translate(4.028 7.422)"/><circle class="a" cx="0.608" cy="0.608" r="0.608" transform="translate(7.927 7.421)"/></g></g></g></svg>