<svg xmlns="http://www.w3.org/2000/svg" width="33.483" height="25.899" viewBox="0 0 33.483 25.899"><defs><style>.a{fill:#2abed5;}</style></defs><g transform="translate(0 0)"><g transform="translate(0 0)"><path class="a" d="M32.2,62.623l-.73-.773-2.561-6.9A3,3,0,0,0,26.114,53H7.82a2.994,2.994,0,0,0-2.8,1.946L2.5,61.764l-1.052.973A4.111,4.111,0,0,0,0,65.864V75.923A2.991,2.991,0,0,0,2.991,78.9H4.879A2.991,2.991,0,0,0,7.87,75.923V74.463H25.613v1.459A2.991,2.991,0,0,0,28.6,78.9h1.889a2.991,2.991,0,0,0,2.991-2.976V65.6A4.149,4.149,0,0,0,32.2,62.623ZM6.367,55.432a1.547,1.547,0,0,1,1.452-1h18.3a1.558,1.558,0,0,1,1.452,1l2.232,6.01H28.138a4.907,4.907,0,0,0-9.709,0H4.135Zm20.311,6.01h-6.8a3.475,3.475,0,0,1,6.8,0ZM6.439,75.923a1.556,1.556,0,0,1-1.56,1.545H2.991a1.556,1.556,0,0,1-1.56-1.545V74.048a2.906,2.906,0,0,0,1.56.415H6.439Zm25.613,0a1.556,1.556,0,0,1-1.56,1.545H28.6a1.56,1.56,0,0,1-1.56-1.545V74.463h3.448a2.906,2.906,0,0,0,1.56-.415Zm-1.56-2.89H2.991A1.543,1.543,0,0,1,1.431,71.5V65.864a2.686,2.686,0,0,1,.952-2.046l.029-.029.973-.916H30.478l.687.737c.007.014.029.021.036.036a2.7,2.7,0,0,1,.844,1.953v5.9h.007A1.548,1.548,0,0,1,30.492,73.032Z" transform="translate(0 -53)"/></g></g><g transform="translate(3.363 12.735)"><g transform="translate(0 0)"><path class="a" d="M53.081,231H47.715a.717.717,0,0,0-.715.715v3.72a.718.718,0,0,0,.715.715h5.366a.718.718,0,0,0,.715-.715v-3.72A.717.717,0,0,0,53.081,231Zm-.715,3.72H48.431v-2.289h3.935Z" transform="translate(-47 -231)"/></g></g><g transform="translate(23.323 12.735)"><g transform="translate(0 0)"><path class="a" d="M332.081,231h-5.366a.717.717,0,0,0-.716.715v3.72a.718.718,0,0,0,.716.715h5.366a.718.718,0,0,0,.715-.715v-3.72A.718.718,0,0,0,332.081,231Zm-.715,3.72h-3.935v-2.289h3.935Z" transform="translate(-326 -231)"/></g></g><g transform="translate(12.57 15.74)"><g transform="translate(0 0)"><path class="a" d="M183.327,273h-6.911a.715.715,0,1,0,0,1.431h6.911a.715.715,0,0,0,0-1.431Z" transform="translate(-175.7 -273)"/></g></g><g transform="translate(12.57 13.522)"><g transform="translate(0 0)"><path class="a" d="M183.327,242h-6.911a.715.715,0,1,0,0,1.431h6.911a.715.715,0,1,0,0-1.431Z" transform="translate(-175.7 -242)"/></g></g></svg>