<svg xmlns="http://www.w3.org/2000/svg" width="19.409" height="19.125" viewBox="0 0 19.409 19.125"><defs><style>.a{fill:#2d2d39;stroke:#2d2d39;stroke-width:0.3px;}</style></defs><g transform="translate(0.15 -4.019)"><g transform="translate(0 4.208)"><g transform="translate(0 0)"><path class="a" d="M7.705,283.792a1.851,1.851,0,0,0-1.849,1.849v.616H3.7v-1.541c0-.607-1-.822-1.849-.822S0,284.11,0,284.717V287.8a1.851,1.851,0,0,0,1.849,1.849H5.856v.308a1.851,1.851,0,0,0,1.849,1.849h11.4v-8.014Zm-5.856.719a2.737,2.737,0,0,1,1.167.206,2.737,2.737,0,0,1-1.167.206,2.737,2.737,0,0,1-1.167-.206A2.737,2.737,0,0,1,1.849,284.511Zm4.007,4.521H1.849A1.234,1.234,0,0,1,.616,287.8v-2.44a3.851,3.851,0,0,0,1.233.18,3.851,3.851,0,0,0,1.233-.18v.9a.617.617,0,0,0,.616.616H5.856Zm12.637,2.158H8.322v-.616H7.705v.616a1.234,1.234,0,0,1-1.233-1.233v-4.315a1.234,1.234,0,0,1,1.233-1.233v5.548h.616v-5.548H18.493Z" transform="translate(0 -273.02)"/><path class="a" d="M25.4,145.4l.276-.551a2.375,2.375,0,0,1-1.063-2.19c0-1.569.691-1.856.714-1.865l-.2-.584c-.046.015-1.135.4-1.135,2.45A2.961,2.961,0,0,0,25.4,145.4Z" transform="translate(-23.075 -134.968)"/><path class="a" d="M59.5,8.252l.173.255.171.256A2.87,2.87,0,0,0,60.91,6.349c0-1.743-1.089-2.126-1.135-2.141l-.195.584c.007,0,.714.274.714,1.557A2.276,2.276,0,0,1,59.5,8.252Z" transform="translate(-57.211 -4.208)"/><path class="a" d="M80.069,136.839l.584-.2a2.375,2.375,0,0,1,.8-2.3c1.109-1.109,1.8-.824,1.824-.814l.276-.551c-.043-.022-1.088-.518-2.535.93A2.962,2.962,0,0,0,80.069,136.839Z" transform="translate(-76.901 -127.922)"/><path class="a" d="M198.17,50.845c1.233-1.233.733-2.273.712-2.317l-.554.271c.013.029.309.707-.594,1.61a2.278,2.278,0,0,1-1.9.787l-.119.605a1.642,1.642,0,0,0,.3.023A3.047,3.047,0,0,0,198.17,50.845Z" transform="translate(-188.172 -46.82)"/><path class="a" d="M120.84,197.2l.551.276a2.375,2.375,0,0,1,2.19-1.063c1.569,0,1.856.691,1.865.714l.584-.2c-.015-.046-.4-1.135-2.45-1.135A2.961,2.961,0,0,0,120.84,197.2Z" transform="translate(-116.184 -188.411)"/><path class="a" d="M275.758,232.7c1.743,0,2.126-1.089,2.141-1.135l-.584-.2c0,.007-.274.714-1.557.714a2.276,2.276,0,0,1-1.9-.79l-.511.344A2.869,2.869,0,0,0,275.758,232.7Z" transform="translate(-262.813 -222.547)"/><rect class="a" width="0.616" height="0.616" transform="translate(8.938 16.936)"/><rect class="a" width="7.705" height="0.616" transform="translate(10.171 16.936)"/></g></g></g></svg>