<svg xmlns="http://www.w3.org/2000/svg" width="19.556" height="14.796" viewBox="0 0 19.556 14.796"><defs><style>.a{fill:#2d2d39;stroke:#2d2d39;stroke-width:0.3px;}</style></defs><g transform="translate(0.15 -63.12)"><path class="a" d="M18.976,76.93l-2.235-.6a1.2,1.2,0,0,0,.461-.66l.1-.368,1.481.4a.376.376,0,0,0,.195-.727l-1.481-.4.193-.722a1.13,1.13,0,0,0-.8-1.382l-6.539-1.752a1.13,1.13,0,0,0-1.222.451L8.7,71.058a1.13,1.13,0,0,0-1.382.8l-.049.182-.386-.1a2.244,2.244,0,0,0-.274-1.451,1.674,1.674,0,0,0,.051-1.532A3.042,3.042,0,0,0,5.153,63.27c-.093,0-.187,0-.28.013a.376.376,0,0,0,.069.749c.07-.006.142-.01.212-.01a2.29,2.29,0,0,1,.834,4.422l-.008,0a2.28,2.28,0,0,1-.826.154.376.376,0,0,0,0,.752,3.029,3.029,0,0,0,.816-.112.919.919,0,0,1-.1,1,.376.376,0,0,0-.008.463,1.462,1.462,0,0,1,.278,1.14.752.752,0,0,0-.514.526l-.187.7c-1.259-.452-1.713-1.04-1.634-2.025a.376.376,0,0,0-.171-.346.613.613,0,0,1-.259-.679.376.376,0,0,0-.485-.456,1.611,1.611,0,1,1-.528-3.133c.036,0,.073,0,.111,0a.377.377,0,0,0,.4-.341c.006-.07.016-.14.029-.21a.376.376,0,0,0-.723-.2,2.363,2.363,0,1,0,.436,4.7,1.355,1.355,0,0,0,.429.8c-.034,1.787,1.448,2.433,2.919,2.827h0l.726.195-.049.182a1.13,1.13,0,0,0,.8,1.382l3.527.945A.376.376,0,0,0,11.161,76l-3.527-.945a.377.377,0,0,1-.266-.461l.681-2.543a.378.378,0,0,1,.461-.266l.363.1-.1.363a1.171,1.171,0,0,0,.739,1.361l5.957,2.71-.112.419A.378.378,0,0,1,14.9,77l-.469-.126a.376.376,0,0,0-.195.727l.469.126a1.13,1.13,0,0,0,1.38-.793l2.7.722a.376.376,0,0,0,.195-.727ZM6.159,73.3h0l.195-.727.727.195-.195.727ZM9.5,72.44l.195-.726a.376.376,0,0,1,.461-.266L16.7,73.2a.378.378,0,0,1,.266.461l-.487,1.816a.449.449,0,0,1-.228.276.2.2,0,0,1-.174.011L9.827,72.922c-.186-.085-.383-.262-.324-.482Z"/><path class="a" d="M142.778,147.277h0a.376.376,0,1,0-.376.376A.376.376,0,0,0,142.778,147.277Z" transform="translate(-136.685 -80.486)"/><path class="a" d="M67.027,183.277a.376.376,0,1,0,.752,0h0a.376.376,0,0,0-.752,0Z" transform="translate(-64.506 -115.132)"/><path class="a" d="M113.9,251.9a.376.376,0,0,0,.376-.376h0a.376.376,0,1,0-.376.376Z" transform="translate(-109.257 -180.815)"/><path class="a" d="M328.141,413.069h0a.376.376,0,1,0,.259.465A.376.376,0,0,0,328.141,413.069Z" transform="translate(-315.339 -336.63)"/><path class="a" d="M79.687,82.493a.376.376,0,0,0,0-.752h0a.376.376,0,0,0,0,.752Z" transform="translate(-76.328 -17.776)"/></g></svg>