<svg xmlns="http://www.w3.org/2000/svg" width="12.878" height="12.864" viewBox="0 0 12.878 12.864"><defs><style>.a{fill:#2d2d39;}</style></defs><g transform="translate(0 -0.014)"><g transform="translate(4.458 4.967)"><path class="a" d="M11.972,11v5.777l-1.614-.646a.691.691,0,0,1-.368-.467V11h1.981m0-.991H9.991A.991.991,0,0,0,9,11v4.664a1.642,1.642,0,0,0,.991,1.387l1.981.793a1,1,0,0,0,.368.076.61.61,0,0,0,.623-.671V11a.991.991,0,0,0-.991-.991Z" transform="translate(-9 -10.014)"/></g><g transform="translate(0 0.014)"><path class="a" d="M11.546,1,7.979,4.967H4.9L1.333,1H11.546m.342-.991H.991A.991.991,0,0,0,0,1L4.458,5.958H8.42L12.878,1a.991.991,0,0,0-.991-.991Z" transform="translate(0 -0.014)"/></g></g></svg>