<svg xmlns="http://www.w3.org/2000/svg" width="14.534" height="14.534" viewBox="0 0 14.534 14.534"><defs><style>.a{fill:#2d2d39;}</style></defs><g transform="translate(0 0)"><path class="a" d="M3.508,3.007h9.522a1.5,1.5,0,1,0,0-3.007H1.5A1.5,1.5,0,0,0,0,1.5V9.523a1.5,1.5,0,0,0,1.5,1.5H4.511a.5.5,0,0,1,.5.5v1.5h1v-1.5a1.5,1.5,0,0,0-1.5-1.5H1.5a.5.5,0,0,1-.5-.5V1.5A.5.5,0,0,1,1.5,1H13.031a.5.5,0,1,1,0,1H3.508a1.5,1.5,0,0,0,0,3.007h9.522a.5.5,0,1,1,0,1H3.508a1.5,1.5,0,0,0,0,3.007h9.522a.5.5,0,1,1,0,1H10.274a1.5,1.5,0,0,0-1.5,1.5v1.5h1v-1.5a.5.5,0,0,1,.5-.5h2.757a1.5,1.5,0,1,0,0-3.007H3.508a.5.5,0,0,1,0-1h9.522a1.5,1.5,0,1,0,0-3.007H3.508a.5.5,0,0,1,0-1Zm0,0" transform="translate(0 0)"/><path class="a" d="M150.572,467.863h1.5a.5.5,0,0,1,.5.5v.251a.5.5,0,0,1-.5.5h-1.5a.5.5,0,0,1-.5-.5v-.251A.5.5,0,0,1,150.572,467.863Zm0,0" transform="translate(-145.81 -454.582)"/><path class="a" d="M282.986,467.863h1.5a.5.5,0,0,1,.5.5v.251a.5.5,0,0,1-.5.5h-1.5a.5.5,0,0,1-.5-.5v-.251A.5.5,0,0,1,282.986,467.863Zm0,0" transform="translate(-274.466 -454.582)"/></g></svg>