<svg xmlns="http://www.w3.org/2000/svg" width="21.626" height="13.938" viewBox="0 0 21.626 13.938"><defs><style>.a{fill:#2d2d39;}</style></defs><g transform="translate(0 -91)"><g transform="translate(0 91)"><path class="a" d="M18.458,94.8a.634.634,0,0,0-.634.634v.634H16.557v-.634a.634.634,0,0,0-.634-.634h-1L13.837,93.72a.633.633,0,0,0-.448-.186h-.634V92.267h.634a.634.634,0,1,0,0-1.267H6.969a.634.634,0,1,0,0,1.267H7.6v1.267H6.969a.633.633,0,0,0-.448.186L5.44,94.8H3.168a.634.634,0,0,0-.634.634v2.534H1.267V95.435a.634.634,0,1,0-1.267,0v6.336a.634.634,0,1,0,1.267,0V99.236H2.534v2.534a.634.634,0,0,0,.634.634H5.44l2.349,2.349a.633.633,0,0,0,.448.186h6.42a.634.634,0,0,0,.567-.35l1.092-2.184h1.509v.634a.634.634,0,0,0,.634.634,3.171,3.171,0,0,0,3.168-3.168V97.969A3.171,3.171,0,0,0,18.458,94.8ZM5.069,101.137H3.8V96.069H5.069Zm3.8-8.87h2.619v1.267H8.87Zm6.42,9.354-1.025,2.05H8.5l-2.163-2.163V95.7l.9-.9h5.9l1.082,1.082a.634.634,0,0,0,.448.186h.634Zm2.534-.484H16.557v-3.8h1.267Zm2.534-.634a1.9,1.9,0,0,1-1.267,1.792V96.177a1.9,1.9,0,0,1,1.267,1.792Z" transform="translate(0 -91)"/></g><g transform="translate(8.954 96.068)"><g transform="translate(0 0)"><path class="a" d="M215.154,213.531h-1.509l.809-1.617a.634.634,0,1,0-1.133-.567l-1.267,2.534a.634.634,0,0,0,.567.917h1.509l-.809,1.617a.634.634,0,0,0,1.133.567l1.267-2.534A.634.634,0,0,0,215.154,213.531Z" transform="translate(-211.986 -210.996)"/></g></g></g></svg>