<svg xmlns="http://www.w3.org/2000/svg" width="17.205" height="16.034" viewBox="0 0 17.205 16.034"><defs><style>.a{fill:#2d2d39;}</style></defs><g transform="translate(-16 -32)"><path class="a" d="M217.5,66.032l.466.335a4.3,4.3,0,1,1,3.5,6.809c-.09,0-.18,0-.269-.008l-.035.572c.1.006.2.009.3.009a4.875,4.875,0,1,0-3.961-7.717Z" transform="translate(-194.277 -30.853)"/><path class="a" d="M297.142,170.3A1.146,1.146,0,0,0,298.277,169l1.093-.453-.219-.53-1.094.453a1.147,1.147,0,1,0-.916,1.837Zm0-1.721a.574.574,0,1,1-.574.574A.574.574,0,0,1,297.142,168.583Z" transform="translate(-269.958 -131.134)"/><path class="a" d="M416,192h.574v.574H416Z" transform="translate(-385.662 -154.265)"/><path class="a" d="M0,0H.573V.574H0Z" transform="translate(29.991 36.546) rotate(-22.514)"/><path class="a" d="M0,0H.574V.574H0Z" transform="translate(29.209 35.59) rotate(-45)"/><path class="a" d="M0,0H.574V.573H0Z" transform="translate(28.13 34.998) rotate(-67.486)"/><path class="a" d="M320,96h.573v.574H320Z" transform="translate(-293.103 -61.706)"/><path class="a" d="M0,0H.573V.574H0Z" transform="translate(25.494 34.685) rotate(-22.514)"/><path class="a" d="M0,0H.573V.574H0Z" transform="translate(28.13 41.043) rotate(-22.514)"/><path class="a" d="M0,0H.574V.574H0Z" transform="translate(29.209 40.456) rotate(-45)"/><path class="a" d="M0,0H.574V.573H0Z" transform="translate(29.993 39.494) rotate(-67.486)"/><path class="a" d="M479.813,191.636c0,.091.007.182.007.273s0,.182-.007.273l.573.028c0-.1.007-.2.007-.3s0-.2-.007-.3Z" transform="translate(-447.188 -153.887)"/><path class="a" d="M328,32.574a5.45,5.45,0,0,1,5.387,4.63l.567-.085A6.023,6.023,0,0,0,328,32Z" transform="translate(-300.817)"/><path class="a" d="M216,288h1.721v.574H216Z" transform="translate(-192.831 -246.824)"/><path class="a" d="M0,0H1.721V.573H0Z" transform="translate(20.782 38.175) rotate(-67.486)"/><path class="a" d="M0,0H.573V1.721H0Z" transform="translate(20.785 44.752) rotate(-22.514)"/><path class="a" d="M0,0H1.147V.574H0Z" transform="translate(23.331 39.66) rotate(-22.514)"/><path class="a" d="M0,0H1.147V.574H0Z" transform="translate(22.362 38.422) rotate(-45)"/><path class="a" d="M0,0H.574V1.147H0Z" transform="translate(22.362 44.504) rotate(-45)"/><path class="a" d="M0,0H.574V1.147H0Z" transform="translate(23.331 43.267) rotate(-67.486)"/><path class="a" d="M78.351,246.992l.469-.39a1.14,1.14,0,0,0,.566.211q.054,0,.107,0a1.147,1.147,0,0,0,1.035-1.637l1.13-.94-.367-.441-1.13.94a1.147,1.147,0,0,0-1.708,1.421l-.469.39Zm.772-1.762a.571.571,0,1,1-.205.388A.574.574,0,0,1,79.123,245.23Z" transform="translate(-59.762 -204.208)"/><path class="a" d="M16.287,125.262h2.294a.287.287,0,0,0,.287-.287v-.455l1.207,1.207a.287.287,0,0,0,.2.084H20.3a6.6,6.6,0,0,0,0-13.141.287.287,0,0,0-.227.083l-1.207,1.207V113.5a.287.287,0,0,0-.287-.287H16.287A.287.287,0,0,0,16,113.5v11.47A.287.287,0,0,0,16.287,125.262Zm4.1-12.008a6.022,6.022,0,0,1,0,11.972l-2.664-2.664v-6.645Zm-3.811.538h1.721v.741L17.231,115.6a.287.287,0,0,0-.084.2v6.882a.287.287,0,0,0,.084.2l1.063,1.063v.741H16.574Z" transform="translate(0 -77.777)"/><path class="a" d="M264,362.868h6.309a.287.287,0,0,0,.287-.287v-2.294a.287.287,0,0,0-.287-.287h-4.875v.574h4.588v1.721H264Z" transform="translate(-239.111 -316.243)"/><path class="a" d="M400,392h.574v.573H400Z" transform="translate(-370.236 -347.096)"/><path class="a" d="M368,392h.573v.573H368Z" transform="translate(-339.383 -347.096)"/><path class="a" d="M336,392h.573v.573H336Z" transform="translate(-308.53 -347.096)"/><path class="a" d="M304,392h.574v.573H304Z" transform="translate(-277.677 -347.096)"/></g></svg>