<svg xmlns="http://www.w3.org/2000/svg" width="39.661" height="12.858" viewBox="0 0 39.661 12.858"><g transform="translate(-1188.729 -664.481)"><path d="M2.736,0h0a0,0,0,0,1,0,0V39.661a0,0,0,0,1,0,0h0A2.736,2.736,0,0,1,0,36.925V2.736A2.736,2.736,0,0,1,2.736,0Z" transform="translate(1228.39 664.481) rotate(90)" fill="#4e74e9"/><path d="M0,0H0A2.736,2.736,0,0,1,2.736,2.736V36.925A2.736,2.736,0,0,1,0,39.661H0a0,0,0,0,1,0,0V0A0,0,0,0,1,0,0Z" transform="translate(1228.39 674.604) rotate(90)" fill="#4e74e9"/><rect width="3.283" height="39.661" transform="translate(1228.39 667.491) rotate(90)" fill="#4e74e9"/><rect width="3.283" height="39.661" transform="translate(1228.39 671.047) rotate(90)" fill="#4e74e9"/></g></svg>