<svg xmlns="http://www.w3.org/2000/svg" width="14" height="14" viewBox="0 0 14 14">
  <g id="Group_8586" data-name="Group 8586" transform="translate(-1025.409 -715.487)">
    <g id="Ellipse_1_copy" data-name="Ellipse 1 copy" transform="translate(1039.409 715.487) rotate(90)" fill="#fff" stroke="#1a1a1a" stroke-linejoin="round" stroke-width="4">
      <circle cx="7" cy="7" r="7" stroke="none"/>
      <circle cx="7" cy="7" r="5" fill="none"/>
    </g>
    <g id="Path_8154" data-name="Path 8154" transform="translate(1026.409 716.487)" fill="#fff">
      <path d="M 6 11.5 C 2.967289924621582 11.5 0.5 9.032710075378418 0.5 6 C 0.5 2.967289924621582 2.967289924621582 0.5 6 0.5 C 9.032710075378418 0.5 11.5 2.967289924621582 11.5 6 C 11.5 9.032710075378418 9.032710075378418 11.5 6 11.5 Z" stroke="none"/>
      <path d="M 6 1 C 3.242989540100098 1 1 3.242989540100098 1 6 C 1 8.757009506225586 3.242989540100098 11 6 11 C 8.757009506225586 11 11 8.757009506225586 11 6 C 11 3.242989540100098 8.757009506225586 1 6 1 M 6 0 C 9.31371021270752 0 12 2.68628978729248 12 6 C 12 9.31371021270752 9.31371021270752 12 6 12 C 2.68628978729248 12 0 9.31371021270752 0 6 C 0 2.68628978729248 2.68628978729248 0 6 0 Z" stroke="none" fill="#e3edff"/>
    </g>
    <g id="Group_8321" data-name="Group 8321" transform="translate(1028.424 718.501)">
      <g id="Path_8155" data-name="Path 8155" transform="translate(7.973) rotate(90)" fill="#fff">
        <path d="M 3.98659873008728 7.473198890686035 C 2.064078807830811 7.473198890686035 0.4999987185001373 5.90911865234375 0.4999987185001373 3.98659873008728 C 0.4999987185001373 2.064078807830811 2.064078807830811 0.4999987185001373 3.98659873008728 0.4999987185001373 C 5.90911865234375 0.4999987185001373 7.473198890686035 2.064078807830811 7.473198890686035 3.98659873008728 C 7.473198890686035 5.90911865234375 5.90911865234375 7.473198890686035 3.98659873008728 7.473198890686035 Z" stroke="none"/>
        <path d="M 3.98659873008728 0.9999985694885254 C 2.339778900146484 0.9999985694885254 0.9999985694885254 2.339778900146484 0.9999985694885254 3.98659873008728 C 0.9999985694885254 5.633419036865234 2.339778900146484 6.973198890686035 3.98659873008728 6.973198890686035 C 5.633419036865234 6.973198890686035 6.973198890686035 5.633419036865234 6.973198890686035 3.98659873008728 C 6.973198890686035 2.339778900146484 5.633419036865234 0.9999985694885254 3.98659873008728 0.9999985694885254 M 3.98659873008728 -1.430511474609375e-06 C 6.188338756561279 -1.430511474609375e-06 7.973198890686035 1.784858703613281 7.973198890686035 3.98659873008728 C 7.973198890686035 6.188338756561279 6.188338756561279 7.973198890686035 3.98659873008728 7.973198890686035 C 1.784858703613281 7.973198890686035 -1.430511474609375e-06 6.188338756561279 -1.430511474609375e-06 3.98659873008728 C -1.430511474609375e-06 1.784858703613281 1.784858703613281 -1.430511474609375e-06 3.98659873008728 -1.430511474609375e-06 Z" stroke="none" fill="#da4336"/>
      </g>
      <g id="Group_8320" data-name="Group 8320" transform="translate(2.535 2.068)">
        <g id="Group_8587" data-name="Group 8587">
          <path id="Path_8016" data-name="Path 8016" d="M72.757.4h-.707V.129A.129.129,0,0,0,71.92,0h-.946a.129.129,0,0,0-.129.129V.4h-.707a.129.129,0,0,0-.129.129v.4a.129.129,0,0,0,.129.129h.039l.118,2.784a.129.129,0,0,0,.129.124H72.47a.129.129,0,0,0,.129-.124l.118-2.784h.039a.129.129,0,0,0,.129-.129v-.4A.129.129,0,0,0,72.757.4ZM71.1.258h.688V.4H71.1ZM72.346,3.7h-1.8l-.112-2.65h2.024ZM72.627.795H70.266V.656h2.361Z" transform="translate(-70.008)" fill="#da4336"/>
          <path id="Path_8017" data-name="Path 8017" d="M172.268,187.3a.129.129,0,0,0-.129.129v1.6a.129.129,0,0,0,.258,0v-1.6A.129.129,0,0,0,172.268,187.3Z" transform="translate(-171.349 -186.074)" fill="#da4336"/>
          <path id="Path_8018" data-name="Path 8018" d="M239.431,187.3a.129.129,0,0,0-.129.129v1.6a.129.129,0,0,0,.258,0v-1.6A.129.129,0,0,0,239.431,187.3Z" transform="translate(-237.992 -186.074)" fill="#da4336"/>
          <path id="Path_8019" data-name="Path 8019" d="M306.594,187.3a.129.129,0,0,0-.129.129v1.6a.129.129,0,1,0,.258,0v-1.6A.129.129,0,0,0,306.594,187.3Z" transform="translate(-304.636 -186.074)" fill="#da4336"/>
        </g>
      </g>
    </g>
  </g>
</svg>
