<svg xmlns="http://www.w3.org/2000/svg" width="39.494" height="12.804" viewBox="0 0 39.494 12.804"><g transform="translate(-637 -679.166)"><path d="M2.724,0h0a0,0,0,0,1,0,0V39.494a0,0,0,0,1,0,0h0A2.724,2.724,0,0,1,0,36.769V2.724A2.724,2.724,0,0,1,2.724,0Z" transform="translate(676.494 679.166) rotate(90)" fill="#1a1a1a"/><path d="M0,0H0A2.724,2.724,0,0,1,2.724,2.724V36.769A2.724,2.724,0,0,1,0,39.494H0a0,0,0,0,1,0,0V0A0,0,0,0,1,0,0Z" transform="translate(676.494 689.246) rotate(90)" fill="#1a1a1a"/><rect width="3.269" height="39.494" transform="translate(676.494 682.163) rotate(90)" fill="#1a1a1a"/><rect width="3.269" height="39.494" transform="translate(676.494 685.705) rotate(90)" fill="#1a1a1a"/></g></svg>