<svg xmlns="http://www.w3.org/2000/svg" width="14" height="14" viewBox="0 0 14 14"><g transform="translate(-1393.409 -694.487)"><g transform="translate(744 -21)"><g transform="translate(663.409 715.487) rotate(90)" fill="#fff" stroke="#1a1a1a" stroke-linejoin="round" stroke-width="4"><circle cx="7" cy="7" r="7" stroke="none"/><circle cx="7" cy="7" r="5" fill="none"/></g><g transform="translate(650.409 716.487)" fill="#1a73e8"><path d="M 6 11.5 C 2.967289924621582 11.5 0.5 9.032710075378418 0.5 6 C 0.5 2.967289924621582 2.967289924621582 0.5 6 0.5 C 9.032710075378418 0.5 11.5 2.967289924621582 11.5 6 C 11.5 9.032710075378418 9.032710075378418 11.5 6 11.5 Z" stroke="none"/><path d="M 6 1 C 3.242989540100098 1 1 3.242989540100098 1 6 C 1 8.757009506225586 3.242989540100098 11 6 11 C 8.757009506225586 11 11 8.757009506225586 11 6 C 11 3.242989540100098 8.757009506225586 1 6 1 M 6 0 C 9.31371021270752 0 12 2.68628978729248 12 6 C 12 9.31371021270752 9.31371021270752 12 6 12 C 2.68628978729248 12 0 9.31371021270752 0 6 C 0 2.68628978729248 2.68628978729248 0 6 0 Z" stroke="none" fill="#e3edff"/></g><path d="M3.869,3.887H2.53V2.548a.3.3,0,0,0-.3-.3h-.3a.3.3,0,0,0-.3.3V3.887H.3a.3.3,0,0,0-.3.3v.3a.3.3,0,0,0,.3.3H1.637V6.119a.3.3,0,0,0,.3.3h.3a.3.3,0,0,0,.3-.3V4.78H3.869a.3.3,0,0,0,.3-.3v-.3A.3.3,0,0,0,3.869,3.887Z" transform="translate(654.242 718.137)" fill="#fff"/></g></g></svg>