<svg xmlns="http://www.w3.org/2000/svg" width="12.257" height="23.745" viewBox="0 0 12.257 23.745"><g transform="translate(-650.891 -692.243)"><rect width="2" height="5" transform="translate(656.409 708.487) rotate(90)" fill="#878787"/><rect width="1.09" height="12.257" transform="translate(663.147 692.243) rotate(90)" fill="#1a1a1a"/><rect width="2" height="7" transform="translate(660.409 692.487) rotate(90)" fill="#1a1a1a"/><path d="M0,.784H19.844A1.878,1.878,0,0,0,21.671,0a15.112,15.112,0,0,0-.522,3.655,7.828,7.828,0,0,0,.783,2.872,6.793,6.793,0,0,0-2.089-.783H0Z" transform="translate(660.138 694.049) rotate(90)" fill="#1a1a1a"/><rect width="1" height="5" transform="translate(662.409 695.487) rotate(90)" fill="#1a1a1a"/><rect width="2" height="5" transform="translate(662.409 699.487) rotate(90)" fill="#878787"/><rect width="1" height="5" transform="translate(662.409 699.487) rotate(90)" fill="#1a1a1a"/><rect width="1" height="5" transform="translate(656.409 704.487) rotate(90)" fill="#878787"/><rect width="1" height="4" transform="translate(655.409 704.487) rotate(90)" fill="#1a1a1a"/><rect width="1" height="4" transform="translate(655.409 709.487) rotate(90)" fill="#1a1a1a"/><rect width="4" height="2" transform="translate(656.409 705.487) rotate(90)" fill="#878787"/><rect width="3" height="1" transform="translate(655.409 705.487) rotate(90)" fill="#1a1a1a"/></g></svg>