<svg xmlns="http://www.w3.org/2000/svg" width="11.534" height="21.033" viewBox="0 0 11.534 21.033"><defs><style>.a{fill:#da4336;}</style></defs><g transform="translate(-95.573)"><g transform="translate(95.573)"><g transform="translate(0)"><path class="a" d="M106.094,0h-9.5a1.016,1.016,0,0,0-1.015,1.015v19a1.016,1.016,0,0,0,1.015,1.015h9.5a1.016,1.016,0,0,0,1.015-1.015v-19A1.016,1.016,0,0,0,106.094,0Zm.336,20.019a.337.337,0,0,1-.336.336h-9.5a.337.337,0,0,1-.336-.336v-19a.337.337,0,0,1,.336-.336h9.5a.337.337,0,0,1,.336.336Z" transform="translate(-95.574)"/></g></g><g transform="translate(95.573 2.035)"><g transform="translate(0)"><path class="a" d="M106.768,40.96H95.912a.339.339,0,0,0-.339.339V56.184a.339.339,0,0,0,.339.339h10.856a.339.339,0,0,0,.339-.339V41.3A.339.339,0,0,0,106.768,40.96Zm-.339,14.884H96.252V41.638h10.177Z" transform="translate(-95.573 -40.96)"/></g></g><g transform="translate(100.322 17.98)"><g transform="translate(0)"><path class="a" d="M192.165,361.813a1.018,1.018,0,1,0,1.018,1.018A1.019,1.019,0,0,0,192.165,361.813Zm0,1.357a.339.339,0,1,1,.339-.339A.34.34,0,0,1,192.165,363.17Z" transform="translate(-191.147 -361.813)"/></g></g><g transform="translate(96.591 3.053)"><g transform="translate(0)"><path class="a" d="M117.965,61.44h-1.11a.8.8,0,0,0-.8.8v1.11a.8.8,0,0,0,.8.8h1.11a.8.8,0,0,0,.8-.8v-1.11A.8.8,0,0,0,117.965,61.44Zm.123,1.912a.123.123,0,0,1-.123.123h-1.11a.123.123,0,0,1-.123-.123v-1.11a.123.123,0,0,1,.123-.123h1.11a.123.123,0,0,1,.123.123Z" transform="translate(-116.053 -61.44)"/></g></g><g transform="translate(103.036 3.053)"><path class="a" d="M247.672,61.44h-1.11a.8.8,0,0,0-.8.8v1.11a.8.8,0,0,0,.8.8h1.11a.8.8,0,0,0,.8-.8v-1.11A.8.8,0,0,0,247.672,61.44Zm.123,1.912a.123.123,0,0,1-.123.123h-1.11a.123.123,0,0,1-.123-.123v-1.11a.123.123,0,0,1,.123-.123h1.11a.123.123,0,0,1,.123.123Z" transform="translate(-245.76 -61.44)"/></g><g transform="translate(99.983 3.053)"><path class="a" d="M186.232,61.44h-1.11a.8.8,0,0,0-.8.8v1.11a.8.8,0,0,0,.8.8h1.11a.8.8,0,0,0,.8-.8v-1.11A.8.8,0,0,0,186.232,61.44Zm.123,1.912a.123.123,0,0,1-.123.123h-1.11a.123.123,0,0,1-.123-.123v-1.11a.123.123,0,0,1,.123-.123h1.11a.123.123,0,0,1,.123.123Z" transform="translate(-184.32 -61.44)"/></g><g transform="translate(96.591 6.106)"><g transform="translate(0)"><path class="a" d="M117.965,122.88h-1.11a.8.8,0,0,0-.8.8v1.11a.8.8,0,0,0,.8.8h1.11a.8.8,0,0,0,.8-.8v-1.11A.8.8,0,0,0,117.965,122.88Zm.123,1.912a.123.123,0,0,1-.123.123h-1.11a.123.123,0,0,1-.123-.123v-1.11a.123.123,0,0,1,.123-.123h1.11a.123.123,0,0,1,.123.123Z" transform="translate(-116.053 -122.88)"/></g></g><g transform="translate(103.036 6.106)"><path class="a" d="M247.672,122.88h-1.11a.8.8,0,0,0-.8.8v1.11a.8.8,0,0,0,.8.8h1.11a.8.8,0,0,0,.8-.8v-1.11A.8.8,0,0,0,247.672,122.88Zm.123,1.912a.123.123,0,0,1-.123.123h-1.11a.123.123,0,0,1-.123-.123v-1.11a.123.123,0,0,1,.123-.123h1.11a.123.123,0,0,1,.123.123Z" transform="translate(-245.76 -122.88)"/></g><g transform="translate(99.983 6.106)"><path class="a" d="M186.232,122.88h-1.11a.8.8,0,0,0-.8.8v1.11a.8.8,0,0,0,.8.8h1.11a.8.8,0,0,0,.8-.8v-1.11A.8.8,0,0,0,186.232,122.88Zm.123,1.912a.123.123,0,0,1-.123.123h-1.11a.123.123,0,0,1-.123-.123v-1.11a.123.123,0,0,1,.123-.123h1.11a.123.123,0,0,1,.123.123Z" transform="translate(-184.32 -122.88)"/></g><g transform="translate(96.591 9.16)"><g transform="translate(0)"><path class="a" d="M117.965,184.32h-1.11a.8.8,0,0,0-.8.8v1.11a.8.8,0,0,0,.8.8h1.11a.8.8,0,0,0,.8-.8v-1.11A.8.8,0,0,0,117.965,184.32Zm.123,1.912a.123.123,0,0,1-.123.123h-1.11a.123.123,0,0,1-.123-.123v-1.11a.123.123,0,0,1,.123-.123h1.11a.123.123,0,0,1,.123.123Z" transform="translate(-116.053 -184.32)"/></g></g><g transform="translate(99.983 9.16)"><path class="a" d="M186.232,184.32h-1.11a.8.8,0,0,0-.8.8v1.11a.8.8,0,0,0,.8.8h1.11a.8.8,0,0,0,.8-.8v-1.11A.8.8,0,0,0,186.232,184.32Zm.123,1.912a.124.124,0,0,1-.123.123h-1.11a.123.123,0,0,1-.123-.123v-1.11a.123.123,0,0,1,.123-.123h1.11a.123.123,0,0,1,.123.123Z" transform="translate(-184.32 -184.32)"/></g></g></svg>