<svg xmlns="http://www.w3.org/2000/svg" width="14.485" height="15.45" viewBox="0 0 14.485 15.45"><defs><style>.a{fill:#2abed5;}</style></defs><g transform="translate(0)"><path class="a" d="M10.6,0H2.716V6.442l-.032.006a2.257,2.257,0,0,0-1.277,3.625,2.208,2.208,0,0,1,.4,1.3A1.359,1.359,0,0,1,.453,12.734H0V15.45H14.485V3.949Zm.263,1.558,2.088,2.123H10.863ZM2.11,9.5a1.351,1.351,0,0,1,.76-2.168A1.359,1.359,0,0,1,4.526,8.661a1.329,1.329,0,0,1-.241.765,3.3,3.3,0,0,0-.664,1.951,2.251,2.251,0,0,0,.454,1.358H2.262a2.251,2.251,0,0,0,.454-1.358A2.961,2.961,0,0,0,2.11,9.5Zm3.322,5.042H.905V13.64H5.432Zm.905,0V12.734H5.884a1.359,1.359,0,0,1-1.358-1.358,2.276,2.276,0,0,1,.5-1.432,2.229,2.229,0,0,0,.4-1.284A2.26,2.26,0,0,0,3.621,6.444V.905H9.958V4.587h3.621v9.958Zm0,0"/><path class="a" d="M242.716,272a2.716,2.716,0,1,0,2.716,2.716A2.719,2.719,0,0,0,242.716,272Zm0,4.526a1.811,1.811,0,1,1,1.811-1.811A1.813,1.813,0,0,1,242.716,276.526Zm0,0" transform="translate(-232.758 -263.792)"/><path class="a" d="M150,92h4.526v.905H150Zm0,0" transform="translate(-145.474 -89.224)"/><path class="a" d="M150,152h4.526v.905H150Zm0,0" transform="translate(-145.474 -147.413)"/><path class="a" d="M210,212h6.337v.905H210Zm0,0" transform="translate(-203.663 -205.603)"/></g></svg>