<svg xmlns="http://www.w3.org/2000/svg" width="17" height="17" viewBox="0 0 17 17"><defs><style>.a{fill:#3ba006;}</style></defs><g transform="translate(-16 -16)"><path class="a" d="M227.11,16.968v1.866h.567V16.968l.366.366.4-.4-.85-.85a.283.283,0,0,0-.4,0l-.85.85.4.4Z" transform="translate(-202.894)"/><path class="a" d="M227.677,417.866V416h-.567v1.866l-.366-.366-.4.4.85.85a.283.283,0,0,0,.4,0l.85-.85-.4-.4Z" transform="translate(-202.894 -385.833)"/><path class="a" d="M426.467,227.193l-.85-.85-.4.4.366.366H424v.567h1.583l-.366.366.4.4.85-.85A.283.283,0,0,0,426.467,227.193Z" transform="translate(-393.55 -202.893)"/><path class="a" d="M386.744,66.184l1.216-1.216V65.7h.567V64.283a.283.283,0,0,0-.283-.283h-1.417v.567h.733l-1.216,1.216Z" transform="translate(-357.227 -46.3)"/><path class="a" d="M387.96,387.56l-1.216-1.216-.4.4,1.216,1.216h-.733v.567h1.417a.283.283,0,0,0,.283-.283v-1.417h-.567Z" transform="translate(-357.227 -357.227)"/><path class="a" d="M18.55,227.677v-.567H16.967l.366-.366-.4-.4-.85.85a.283.283,0,0,0,0,.4l.85.85.4-.4-.366-.366Z" transform="translate(0 -202.893)"/><path class="a" d="M64.567,64.967l1.216,1.216.4-.4-1.216-1.216H65.7V64H64.283a.283.283,0,0,0-.283.283V65.7h.567Z" transform="translate(-46.3 -46.3)"/><path class="a" d="M65.783,386.343l-1.216,1.216v-.733H64v1.417a.283.283,0,0,0,.283.283H65.7v-.567h-.733l1.216-1.216Z" transform="translate(-46.3 -357.227)"/><path class="a" d="M113.067,117.383h1.7v-.567h-1.7V115.4a.283.283,0,0,0-.03-.127l-.475-.951,1.272-1.272-.4-.4-1.139,1.139-.108-.215a.283.283,0,0,0-.253-.157h-2.267V112H109.1v1.417h-2.267a.283.283,0,0,0-.253.157l-.108.215-1.139-1.139-.4.4,1.272,1.272-.475.951a.283.283,0,0,0-.03.127v1.417H104v.567h1.7v3l-.767.767.4.4.767-.767h3V122.2h.567v-1.417h3l.767.767.4-.4-.767-.767Zm-6.233-1.7v.283a.283.283,0,1,1-.567,0v-.283Zm2.942-1.7-.567,1.133h-.5l.567-1.133Zm.567,1.133h-.5l.567-1.133h.5Zm-2.267,0h-.5l.567-1.133h.5Zm-.675.567h.567v.283a.283.283,0,1,1-.567,0Zm1.133,0h.567v.283a.283.283,0,1,1-.567,0Zm1.133,0h.567v.283a.283.283,0,1,1-.567,0Zm1.133,0h.567v.283a.283.283,0,1,1-.567,0Zm1.133,0h.567v.283a.283.283,0,1,1-.567,0Zm-.033-1.417-.425.85h-.5l.567-1.133h.216Zm-4.891-.283h.5l-.567,1.133h-.5Zm3.225,6.233V117.95h1.133v2.267Zm1.7,0v-2.55a.283.283,0,0,0-.283-.283h-1.7a.283.283,0,0,0-.283.283v2.55h-3.4v-3.449a.848.848,0,0,0,.85-.168.848.848,0,0,0,1.133,0,.848.848,0,0,0,1.133,0,.848.848,0,0,0,1.133,0,.848.848,0,0,0,1.133,0,.848.848,0,0,0,.85.168v3.449Z" transform="translate(-84.883 -92.6)"/><path class="a" d="M185.983,264h-1.7a.283.283,0,0,0-.283.283v1.7a.283.283,0,0,0,.283.283h1.7a.283.283,0,0,0,.283-.283v-1.7A.283.283,0,0,0,185.983,264Zm-.283,1.7h-1.133v-1.133H185.7Z" transform="translate(-162.05 -239.216)"/></g></svg>