<svg xmlns="http://www.w3.org/2000/svg" width="17.981" height="17.983" viewBox="0 0 17.981 17.983"><defs><style>.a{fill:#da4336;}</style></defs><g transform="translate(-0.016 0.002)"><g transform="translate(0.016 -0.002)"><path class="a" d="M16.336,3.8a.15.15,0,0,0,0-.017c-.022-.032-.05-.06-.073-.091q-.252-.343-.533-.66c-.051-.058-.1-.115-.155-.172q-.29-.31-.608-.592c-.039-.035-.076-.071-.115-.1a9,9,0,0,0-1.7-1.151L13.069.975A8.934,8.934,0,0,0,12.234.6C12.17.58,12.111.558,12.05.539Q11.671.4,11.279.3c-.077-.021-.154-.042-.233-.06C10.79.179,10.533.134,10.27.1c-.08-.012-.158-.027-.238-.037a8.446,8.446,0,0,0-2.038,0c-.08.01-.159.025-.238.037-.263.037-.522.083-.777.143C6.9.257,6.824.278,6.746.3q-.394.1-.771.24L5.792.6a8.929,8.929,0,0,0-.835.372l-.075.037A9.006,9.006,0,0,0,3.171,2.163c-.039.034-.076.07-.115.1a8.356,8.356,0,0,0-.608.592c-.053.057-.1.114-.155.172q-.282.317-.533.66c-.023.031-.051.059-.073.091a.146.146,0,0,0-.008.017,8.935,8.935,0,0,0,0,10.38.14.14,0,0,0,.008.017c.022.032.05.06.073.091q.251.343.533.66c.051.058.1.115.155.172q.29.31.608.592c.039.035.076.071.115.1a9,9,0,0,0,1.7,1.151L4.951,17a8.934,8.934,0,0,0,.835.372c.064.023.123.045.184.064q.38.137.771.24c.077.021.154.042.233.06.257.06.514.105.777.143.08.012.158.027.238.037a8.445,8.445,0,0,0,2.038,0c.08-.01.159-.025.238-.037.263-.037.522-.083.777-.143.078-.018.155-.039.233-.06q.394-.1.771-.24l.184-.064A8.929,8.929,0,0,0,13.063,17l.075-.037a9.006,9.006,0,0,0,1.7-1.151c.039-.034.076-.07.115-.1a8.179,8.179,0,0,0,.608-.592c.053-.057.1-.114.155-.172q.282-.317.533-.66c.023-.031.051-.059.073-.091a.145.145,0,0,0,.008-.017A8.935,8.935,0,0,0,16.336,3.8ZM15.6,5.015a7.644,7.644,0,0,1,1.084,3.332H12.839a11.988,11.988,0,0,0-.36-2.267A11.544,11.544,0,0,0,15.6,5.015ZM10.645,1.458c.036.008.071.02.107.028a6.913,6.913,0,0,1,.681.193c.034.012.067.025.1.037q.331.116.652.257l.111.054q.306.146.6.315l.128.078q.278.17.54.363c.045.033.09.064.134.1a5.862,5.862,0,0,1,.492.413c.041.037.084.074.124.112.164.156.321.321.473.492.019.022.04.043.059.064a10.776,10.776,0,0,1-2.74.88,16.335,16.335,0,0,0-1.729-3.432C10.465,1.43,10.557,1.439,10.645,1.458ZM6.464,8.347a10.719,10.719,0,0,1,.353-2.056A18.408,18.408,0,0,0,9.01,6.42a18.45,18.45,0,0,0,2.2-.132,10.7,10.7,0,0,1,.351,2.059Zm5.093,1.285a10.719,10.719,0,0,1-.353,2.056,18.8,18.8,0,0,0-4.388,0,10.7,10.7,0,0,1-.351-2.056ZM9.01,1.7A15.516,15.516,0,0,1,10.8,5.04a17,17,0,0,1-1.79.1,17.132,17.132,0,0,1-1.789-.1A15.638,15.638,0,0,1,9.01,1.7ZM3.235,3.9c.151-.171.308-.336.473-.492.04-.039.083-.075.124-.112q.238-.216.492-.413c.044-.034.089-.064.134-.1Q4.72,2.59,5,2.42l.128-.078q.292-.171.6-.315l.111-.054q.32-.145.652-.257c.033-.012.064-.026.1-.037.223-.075.45-.136.681-.193.036-.008.071-.02.107-.028.088-.019.179-.028.269-.044a16.336,16.336,0,0,0-1.73,3.432,10.775,10.775,0,0,1-2.74-.88C3.2,3.943,3.216,3.923,3.235,3.9ZM2.418,5.015A11.542,11.542,0,0,0,5.541,6.08a11.988,11.988,0,0,0-.359,2.267H1.334A7.645,7.645,0,0,1,2.418,5.015Zm0,7.949A7.644,7.644,0,0,1,1.334,9.632H5.182a11.988,11.988,0,0,0,.36,2.267A11.542,11.542,0,0,0,2.418,12.964Zm4.958,3.557c-.036-.008-.071-.02-.107-.028a6.914,6.914,0,0,1-.681-.193c-.034-.012-.067-.025-.1-.037q-.331-.116-.652-.257l-.111-.054q-.306-.146-.6-.315L5,15.559q-.278-.17-.54-.363c-.045-.033-.09-.064-.134-.1a5.862,5.862,0,0,1-.492-.413c-.041-.037-.084-.074-.124-.112-.164-.156-.321-.321-.473-.492-.019-.022-.04-.043-.059-.064a10.776,10.776,0,0,1,2.74-.88,16.335,16.335,0,0,0,1.729,3.432C7.555,16.55,7.464,16.541,7.376,16.521ZM9.01,16.28a15.516,15.516,0,0,1-1.79-3.341,16.725,16.725,0,0,1,3.58,0h0A15.635,15.635,0,0,1,9.01,16.28Zm5.775-2.2c-.151.171-.308.336-.473.492-.04.039-.083.075-.124.112q-.238.217-.492.413l-.134.1q-.262.193-.54.363l-.128.078q-.292.17-.6.315l-.111.054q-.32.145-.652.257c-.033.012-.064.026-.1.037-.223.075-.45.136-.681.193-.036.008-.071.02-.107.028-.088.019-.179.028-.269.044A16.333,16.333,0,0,0,12.1,13.134a10.775,10.775,0,0,1,2.74.88C14.826,14.036,14.805,14.056,14.786,14.079Zm.817-1.115A11.542,11.542,0,0,0,12.479,11.9a11.987,11.987,0,0,0,.359-2.267h3.848A7.645,7.645,0,0,1,15.6,12.964Z" transform="translate(-0.016 0.002)"/></g></g></svg>