<svg xmlns="http://www.w3.org/2000/svg" width="17.7" height="17.7" viewBox="0 0 17.7 17.7"><defs><style>.a{fill:#efa500;}</style></defs><path class="a" d="M17.355,10.095h-2.42V8.85a.346.346,0,0,0-.265-.336l-1.375-.331A4.494,4.494,0,0,0,9.2,4.369V3.457H13a.346.346,0,0,0,.244-.59L12.1,1.729,13.243.59A.346.346,0,0,0,13,0H8.85A.346.346,0,0,0,8.5.346V4.369a4.494,4.494,0,0,0-4.1,3.813L3.03,8.514a.346.346,0,0,0-.265.336v1.245H.346A.346.346,0,0,0,0,10.44v6.914a.346.346,0,0,0,.346.346H7.295a.346.346,0,1,0,0-.691H3.457v-.691H14.243v.691H10.406a.346.346,0,1,0,0,.691h6.949a.346.346,0,0,0,.346-.346V10.44A.346.346,0,0,0,17.355,10.095ZM9.2.691h2.968l-.793.793a.346.346,0,0,0,0,.489l.793.793H9.2ZM8.85,5.047a3.781,3.781,0,0,1,3.709,2.958L8.931,7.131a.346.346,0,0,0-.162,0l-3.628.874A3.782,3.782,0,0,1,8.85,5.047ZM3.457,9.122l5.393-1.3,5.393,1.3v.972H3.457Zm2.074,1.664v4.84H4.84v-4.84Zm.691,0h1.59v4.84H6.223Zm2.282,0H9.2v4.84H8.5Zm1.383,0h1.59v4.84H9.887Zm2.282,0h.691v4.84h-.691ZM.691,17.009V10.786H4.149v4.84H3.457V14.589a.346.346,0,0,0-.346-.346H1.729a.346.346,0,0,0-.346.346v1.383a.346.346,0,0,0,.346.346H2.766v.691Zm2.074-1.383H2.074v-.691h.691Zm14.243,1.383H14.935v-.691h1.037a.346.346,0,0,0,.346-.346V14.589a.346.346,0,0,0-.346-.346H14.589a.346.346,0,0,0-.346.346v1.037h-.691v-4.84h3.457Zm-2.074-1.383v-.691h.691v.691Z"/><path class="a" d="M412,332.346v1.383a.346.346,0,0,0,.346.346h1.383a.346.346,0,0,0,.346-.346v-1.383a.346.346,0,0,0-.346-.346h-1.383A.346.346,0,0,0,412,332.346Zm.691.346h.691v.691h-.691Z" transform="translate(-397.757 -320.522)"/><path class="a" d="M40.346,334.074h1.383a.346.346,0,0,0,.346-.346v-1.383a.346.346,0,0,0-.346-.346H40.346a.346.346,0,0,0-.346.346v1.383A.346.346,0,0,0,40.346,334.074Zm.346-1.383h.691v.691h-.691Z" transform="translate(-38.617 -320.522)"/><ellipse class="a" cy="0.5" ry="0.5" transform="translate(9.241 16.46)"/></svg>