<svg xmlns="http://www.w3.org/2000/svg" width="18.368" height="16.13" viewBox="0 0 18.368 16.13"><defs><style>.a{fill:#3ba006;stroke:#3ba006;stroke-width:0.5px;}</style></defs><g transform="translate(0.25 -31.813)"><g transform="translate(9.753 43.566)"><g transform="translate(0 0)"><path class="a" d="M280.72,361.686h-.979a.262.262,0,0,0,0,.523h.979a.262.262,0,1,0,0-.523Z" transform="translate(-279.479 -361.686)"/></g></g><g transform="translate(7.703 32.063)"><g transform="translate(0 0)"><path class="a" d="M229.786,40.767l-1.425-.55-.727-.727a.26.26,0,0,0-.168-.076v-.578a2.7,2.7,0,0,0,.685-1.348.749.749,0,0,0,.184-.015.775.775,0,0,0,.6-.768v-.191a.784.784,0,0,0-.23-.557,3.457,3.457,0,0,0-.553-2.967,3.165,3.165,0,0,0-2.676-.916,3.505,3.505,0,0,0-2.01.742,1.379,1.379,0,0,0-.539.183,1.393,1.393,0,0,0-.637,1.3,6.536,6.536,0,0,0,.181,1.52.776.776,0,0,0-.426.7V36.7a.775.775,0,0,0,.6.768.747.747,0,0,0,.184.015,2.7,2.7,0,0,0,.685,1.348v.578a.26.26,0,0,0-.168.076l-.727.727-1.425.55a1.733,1.733,0,0,0-.35.183.262.262,0,1,0,.294.433,1.21,1.21,0,0,1,.244-.128l1.323-.51,1.011,1.517a.749.749,0,0,0,.551.331q.038,0,.075,0a.747.747,0,0,0,.368-.1l-.217,4.923a.262.262,0,0,0,.25.273h.012a.262.262,0,0,0,.261-.25l.2-4.569h.543l.2,4.569a.262.262,0,0,0,.261.25h.012a.262.262,0,0,0,.25-.273l-.217-4.923a.747.747,0,0,0,.368.1c.025,0,.05,0,.075,0a.749.749,0,0,0,.551-.331l1.011-1.517,1.323.51a1.2,1.2,0,0,1,.471.328l-.9.9a1.719,1.719,0,0,0-.507,1.224v3.721a.262.262,0,1,0,.523,0V43.712a1.2,1.2,0,0,1,.354-.854l.794-.794a1.206,1.206,0,0,1,.042.366l-.2,4.993a.262.262,0,0,0,.251.272h.011a.262.262,0,0,0,.261-.251l.2-4.993A1.73,1.73,0,0,0,229.786,40.767Zm-6.444-3.387a.51.51,0,0,0-.53-.415.225.225,0,0,1-.061,0,.254.254,0,0,1-.183-.255v-.188a.248.248,0,0,1,.185-.249.228.228,0,0,1,.224.086.365.365,0,0,0,.5.079,1.9,1.9,0,0,0,.429-.42.262.262,0,1,0-.42-.312,1.388,1.388,0,0,1-.2.22.749.749,0,0,0-.284-.152,6.019,6.019,0,0,1-.187-1.475.917.917,0,0,1,.367-.837.85.85,0,0,1,.391-.125.264.264,0,0,0,.181-.072A2.948,2.948,0,0,1,225.5,32.6a2.672,2.672,0,0,1,2.252.736,2.89,2.89,0,0,1,.455,2.409,1.135,1.135,0,0,0-.223.016l-.246-.591a.262.262,0,0,0-.308-.153c-.024.006-2.441.619-3.455-.643a.262.262,0,1,0-.408.328c1.035,1.288,3.088,1.008,3.772.871l.19.457a.43.43,0,0,0,.5.255.565.565,0,0,1,.2-.014.247.247,0,0,1,.186.246V36.7a.254.254,0,0,1-.183.255.222.222,0,0,1-.061,0,.51.51,0,0,0-.53.415,2.184,2.184,0,0,1-4.3,0Zm1.161,4.626a.228.228,0,0,1-.351-.035l-1.019-1.528.41-.41,1.564,1.369Zm.738.346.016-.36.233-.233.233.233.016.36Zm.249-1.31-1.452-1.271v-.5a2.709,2.709,0,0,0,2.9,0v.5Zm1.338.93a.228.228,0,0,1-.351.035l-.6-.6,1.564-1.369.41.41Z" transform="translate(-220.729 -32.066)"/></g></g><g transform="translate(0 32.063)"><g transform="translate(0 0)"><path class="a" d="M8.3,42.135l-1.278-.558-.7-.7a.26.26,0,0,0-.168-.076v-.412a2.7,2.7,0,0,0,1.174-1.76.752.752,0,0,0,.207-.02.779.779,0,0,0,.578-.763v-.191a.78.78,0,0,0-.335-.644,2.96,2.96,0,0,0,.091-.725A3.051,3.051,0,0,0,6.4,33.7a1.7,1.7,0,0,0-1.73-1.638A1.7,1.7,0,0,0,2.939,33.7a3.052,3.052,0,0,0-1.47,2.588,2.959,2.959,0,0,0,.09.723.782.782,0,0,0-.335.649v.188a.779.779,0,0,0,.578.763.751.751,0,0,0,.207.02,2.7,2.7,0,0,0,1.174,1.76V40.8a.26.26,0,0,0-.168.076l-.7.7-1.278.558A1.742,1.742,0,0,0,0,43.795l.155,3.646a.262.262,0,0,0,.261.251H.429a.262.262,0,0,0,.25-.273L.525,43.773a1.205,1.205,0,0,1,.166-.659l.687.824a1.455,1.455,0,0,1,.337.93V47.43a.262.262,0,1,0,.523,0V44.868A1.98,1.98,0,0,0,1.78,43.6l-.73-.876a1.187,1.187,0,0,1,.2-.111l1.114-.486.787,1.278a.507.507,0,0,0,.76.12l.5-.426v4.33a.262.262,0,1,0,.523,0V43.1l.5.426a.506.506,0,0,0,.329.121.511.511,0,0,0,.079-.006.506.506,0,0,0,.353-.235l.787-1.278,1.114.486a1.188,1.188,0,0,1,.2.111l-.73.876A1.979,1.979,0,0,0,7.1,44.868V47.43a.262.262,0,0,0,.523,0V44.868a1.455,1.455,0,0,1,.337-.93l.687-.824a1.205,1.205,0,0,1,.166.659L8.66,47.419a.262.262,0,0,0,.25.273h.011a.262.262,0,0,0,.261-.251L9.337,43.8A1.742,1.742,0,0,0,8.3,42.135ZM4.669,32.586a1.2,1.2,0,0,1,1.166.837,3.319,3.319,0,0,0-2.331,0A1.2,1.2,0,0,1,4.669,32.586ZM2.521,38.524a.51.51,0,0,0-.53-.415.226.226,0,0,1-.068-.006.256.256,0,0,1-.175-.254v-.188a.248.248,0,0,1,.185-.249.227.227,0,0,1,.224.086.365.365,0,0,0,.5.079,1.9,1.9,0,0,0,.424-.412.262.262,0,0,0-.419-.314,1.388,1.388,0,0,1-.2.215.75.75,0,0,0-.395-.174,2.438,2.438,0,0,1-.076-.6,2.621,2.621,0,0,1,2.677-2.554,2.62,2.62,0,0,1,2.677,2.554,2.437,2.437,0,0,1-.075.6,1.2,1.2,0,0,0-.2.034l-.2-.162a.5.5,0,0,0-.349-.114,4.354,4.354,0,0,1-3.366-1.135.262.262,0,0,0-.4.336,3.74,3.74,0,0,0,2.173,1.2,6.406,6.406,0,0,0,1.616.123l.307.252a.261.261,0,0,0,.3.024.577.577,0,0,1,.258-.034.247.247,0,0,1,.186.246v.191a.256.256,0,0,1-.175.254.224.224,0,0,1-.068.006.51.51,0,0,0-.53.415,2.184,2.184,0,0,1-4.3,0Zm1.063,4.592L2.8,41.837l.4-.4,1.084,1.084Zm1.085-.952L3.707,41.2v-.541a2.706,2.706,0,0,0,1.925,0V41.2Zm1.085.952-.7-.6,1.084-1.084.4.4Z" transform="translate(0 -32.063)"/></g></g><g transform="translate(2.694 44.72)"><g transform="translate(0 0)"><path class="a" d="M78.18,394.766h-.735a.262.262,0,0,0,0,.523h.735a.262.262,0,1,0,0-.523Z" transform="translate(-77.184 -394.766)"/></g></g></g></svg>