<svg xmlns="http://www.w3.org/2000/svg" width="15.968" height="15.968" viewBox="0 0 15.968 15.968"><defs><style>.a{fill:#3ba006;stroke:#3ba006;stroke-width:0.5px;}</style></defs><g transform="translate(0.25 0.25)"><g transform="translate(0)"><g transform="translate(0)"><path class="a" d="M15.467,15.187l-.413-4.538a1.8,1.8,0,0,0-1.419-1.6l-2.33-.5L11.174,7.9a.778.778,0,0,0-.854-.616L9.383,7.4l-.051-.616a3.661,3.661,0,0,0,1.754-3.172,3.756,3.756,0,0,0-.1-.838.267.267,0,0,0,.04-.032.259.259,0,0,0,.051-.217L10.653.606A.769.769,0,0,0,9.9,0H5.569a.769.769,0,0,0-.755.606L4.388,2.522a.26.26,0,0,0,.051.217.255.255,0,0,0,.04.032,3.767,3.767,0,0,0-.1.838A3.66,3.66,0,0,0,6.137,6.781L6.086,7.4,5.148,7.28a.779.779,0,0,0-.854.616l-.131.653-2.33.5a1.8,1.8,0,0,0-1.419,1.6L0,15.187a.258.258,0,0,0,.257.281H15.21a.258.258,0,0,0,.257-.281ZM5.318.717a.256.256,0,0,1,.251-.2H9.9a.256.256,0,0,1,.252.2l.356,1.6H4.962ZM4.9,3.609a3.261,3.261,0,0,1,.1-.773h5.481a3.261,3.261,0,0,1,.1.773,3.123,3.123,0,0,1-1.635,2.8,2.607,2.607,0,0,1-2.4,0A3.123,3.123,0,0,1,4.9,3.609ZM7.476,14.952h-4.1l.236-3.074-.514-.04-.239,3.113H.54L.927,10.7A1.283,1.283,0,0,1,1.941,9.552l2.448-.524,1.5.25.085-.509L4.688,8.554,4.8,8a.261.261,0,0,1,.285-.205l1.2.151h0l.177.022A1.292,1.292,0,0,0,7.476,8.995v5.957ZM6.961,7.734a.258.258,0,0,0-.226-.256L6.6,7.461l.037-.444.025.008c.061.022.123.042.186.061l.118.033c.055.014.111.027.167.038s.1.018.152.025.1.015.147.02c.079.008.158.011.237.013.022,0,.044,0,.067,0s.044,0,.067,0c.079,0,.158-.005.237-.013.05,0,.1-.013.147-.02s.1-.015.152-.025.112-.024.167-.038c.039-.01.079-.021.118-.033.063-.019.125-.039.186-.061l.025-.008.037.444-.137.017a.258.258,0,0,0-.226.256.773.773,0,0,1-1.547,0Zm5.651,7.218L12.373,12.1l-.514.043.235,2.814h-4.1V8.995A1.291,1.291,0,0,0,9,7.964l.177-.022h0l1.2-.151A.259.259,0,0,1,10.668,8l.112.558L9.5,8.768l.085.509,1.5-.25,2.448.525A1.283,1.283,0,0,1,14.54,10.7l.387,4.256Z" transform="translate(0)"/></g></g><g transform="translate(8.847 9.961)"><g transform="translate(0 0)"><rect class="a" transform="translate(0.098 -0.438)"/></g></g><g transform="translate(8.847 11.075)"><g transform="translate(0 0)"><rect class="a" transform="translate(0.098 0.448)"/></g></g><g transform="translate(8.847 12.188)"><g transform="translate(0 0)"><rect class="a" height="1" transform="translate(0.098 0.335)"/></g></g><g transform="translate(8.847 13.302)"><g transform="translate(0 0)"><rect class="a" height="1" transform="translate(0.098 0.221)"/></g></g><g transform="translate(6.621 9.961)"><g transform="translate(0 0)"><rect class="a" transform="translate(0.325 -0.438)"/></g></g><g transform="translate(6.621 11.075)"><g transform="translate(0 0)"><rect class="a" transform="translate(0.325 0.448)"/></g></g><g transform="translate(6.621 12.188)"><g transform="translate(0 0)"><rect class="a" height="1" transform="translate(0.325 0.335)"/></g></g><g transform="translate(6.621 13.302)"><g transform="translate(0 0)"><rect class="a" height="1" transform="translate(0.325 0.221)"/></g></g></g></svg>