<svg xmlns="http://www.w3.org/2000/svg" width="20" height="14.062" viewBox="0 0 20 14.062"><defs><style>.a{fill:#2d2d39;}</style></defs><g transform="translate(0 -76)"><g transform="translate(0 76)"><path class="a" d="M18.437,77.172a1.562,1.562,0,0,0-.586,3.011v6.169a1.369,1.369,0,0,1-1.367,1.367H13.125v-.781h1.562v-.009a2.151,2.151,0,0,0,1.953-2.139V82.445a2.151,2.151,0,0,0-1.953-2.139V80.3h-.61a2.734,2.734,0,1,0-4.913-2.148H5.742a1.369,1.369,0,0,0-1.367,1.367V80.3H1.953v.009A2.151,2.151,0,0,0,0,82.445v2.344a2.151,2.151,0,0,0,1.953,2.139v.009h.626a2.148,2.148,0,1,0,3.825,0H9.482l1.562,3.125h2.081V88.891h3.359a2.542,2.542,0,0,0,2.539-2.539V80.182a1.562,1.562,0,0,0-.586-3.011Zm-3.75,4.316a.978.978,0,0,1,.781.957v2.344a.978.978,0,0,1-.781.957ZM1.953,85.746a.978.978,0,0,1-.781-.957V82.445a.978.978,0,0,1,.781-.957Zm9.883-8.574a1.562,1.562,0,1,1-1.562,1.563A1.564,1.564,0,0,1,11.836,77.172ZM5.547,79.516a.2.2,0,0,1,.2-.2H9.165a2.72,2.72,0,0,0,.428.977H5.547ZM4.492,88.891a.977.977,0,1,1,.977-.977A.978.978,0,0,1,4.492,88.891Zm7.461,0h-.185l-.977-1.953h1.161ZM3.125,85.766v-4.3H13.516v4.3Zm15.312-6.641a.391.391,0,1,1,.391-.391A.391.391,0,0,1,18.437,79.125Z" transform="translate(0 -76)"/></g></g></svg>