<svg xmlns="http://www.w3.org/2000/svg" width="14.587" height="14.587" viewBox="0 0 14.587 14.587"><defs><style>.a{fill:#2d2d39;}</style></defs><g transform="translate(-0.006 0)"><g transform="translate(0.007 0)"><g transform="translate(0 0)"><path class="a" d="M6.054,184.034l-1.719,1.719a1.823,1.823,0,0,1-2.579-2.578l3.438-3.438a1.823,1.823,0,0,1,2.578,0,.608.608,0,0,0,.86-.86,3.038,3.038,0,0,0-4.3,0L.9,182.315a3.039,3.039,0,0,0,4.3,4.3l1.719-1.719a.608.608,0,1,0-.86-.86Z" transform="translate(-0.007 -172.915)"/><path class="a" d="M199.193.89a3.039,3.039,0,0,0-4.3,0l-2.062,2.062a.608.608,0,0,0,.86.86l2.062-2.062a1.823,1.823,0,0,1,2.579,2.578l-3.782,3.782a1.823,1.823,0,0,1-2.578,0,.608.608,0,1,0-.86.86,3.039,3.039,0,0,0,4.3,0l3.782-3.782A3.039,3.039,0,0,0,199.193.89Z" transform="translate(-185.496 0)"/></g></g></g></svg>